<mxfile host="Electron" agent="Mozilla/5.0 (Windows NT 10.0; Win64; x64) AppleWebKit/537.36 (KHTML, like Gecko) draw.io/24.7.5 Chrome/126.0.6478.183 Electron/31.3.0 Safari/537.36" version="24.7.5" pages="7">
  <diagram id="C5RBs43oDa-KdzZeNtuy" name="Page 01">
    <mxGraphModel dx="3442" dy="2997" grid="1" gridSize="5" guides="1" tooltips="1" connect="1" arrows="1" fold="1" page="1" pageScale="1" pageWidth="1169" pageHeight="827" math="0" shadow="0">
      <root>
        <mxCell id="WIyWlLk6GJQsqaUBKTNV-0" />
        <mxCell id="WIyWlLk6GJQsqaUBKTNV-1" parent="WIyWlLk6GJQsqaUBKTNV-0" />
        <mxCell id="1oRLXJWAZkNwWkXzSEgh-3" style="edgeStyle=orthogonalEdgeStyle;rounded=0;orthogonalLoop=1;jettySize=auto;html=1;exitX=0.5;exitY=1;exitDx=0;exitDy=0;entryX=0.5;entryY=0;entryDx=0;entryDy=0;" parent="WIyWlLk6GJQsqaUBKTNV-1" source="WIyWlLk6GJQsqaUBKTNV-3" target="1oRLXJWAZkNwWkXzSEgh-1" edge="1">
          <mxGeometry relative="1" as="geometry" />
        </mxCell>
        <mxCell id="WIyWlLk6GJQsqaUBKTNV-3" value="&lt;div style=&quot;&quot;&gt;&lt;span style=&quot;background-color: initial;&quot;&gt;&lt;b&gt;&lt;font style=&quot;font-size: 14px;&quot;&gt;Initialize&lt;/font&gt;&lt;/b&gt;&lt;/span&gt;&lt;/div&gt;&lt;div style=&quot;&quot;&gt;&lt;span style=&quot;background-color: initial;&quot;&gt;status = Idle&lt;/span&gt;&lt;/div&gt;" style="rounded=1;whiteSpace=wrap;html=1;fontSize=12;glass=0;strokeWidth=1;shadow=0;align=center;" parent="WIyWlLk6GJQsqaUBKTNV-1" vertex="1">
          <mxGeometry x="-1840" y="-2223" width="180" height="90" as="geometry" />
        </mxCell>
        <mxCell id="1oRLXJWAZkNwWkXzSEgh-0" value="UI Message Loop" style="text;html=1;align=center;verticalAlign=middle;resizable=0;points=[];autosize=1;strokeColor=none;fillColor=none;fontStyle=0;labelBackgroundColor=#ffea00;fontSize=20;" parent="WIyWlLk6GJQsqaUBKTNV-1" vertex="1">
          <mxGeometry x="-1835" y="-2294" width="180" height="40" as="geometry" />
        </mxCell>
        <mxCell id="1oRLXJWAZkNwWkXzSEgh-4" style="edgeStyle=orthogonalEdgeStyle;rounded=0;orthogonalLoop=1;jettySize=auto;html=1;exitX=0.5;exitY=1;exitDx=0;exitDy=0;entryX=0.5;entryY=0;entryDx=0;entryDy=0;" parent="WIyWlLk6GJQsqaUBKTNV-1" source="1oRLXJWAZkNwWkXzSEgh-1" target="1oRLXJWAZkNwWkXzSEgh-2" edge="1">
          <mxGeometry relative="1" as="geometry" />
        </mxCell>
        <mxCell id="1oRLXJWAZkNwWkXzSEgh-1" value="&lt;b&gt;&lt;font style=&quot;font-size: 14px;&quot;&gt;Init UI Refs&lt;/font&gt;&lt;/b&gt;&lt;br&gt;status = Idle" style="rounded=1;whiteSpace=wrap;html=1;" parent="WIyWlLk6GJQsqaUBKTNV-1" vertex="1">
          <mxGeometry x="-1840" y="-2070" width="180" height="90" as="geometry" />
        </mxCell>
        <mxCell id="uEtpt4iqBrEO8YLCOElS-1" style="rounded=0;orthogonalLoop=1;jettySize=auto;html=1;exitX=0.5;exitY=1;exitDx=0;exitDy=0;entryX=0.5;entryY=0;entryDx=0;entryDy=0;" parent="WIyWlLk6GJQsqaUBKTNV-1" source="1oRLXJWAZkNwWkXzSEgh-2" target="uEtpt4iqBrEO8YLCOElS-0" edge="1">
          <mxGeometry relative="1" as="geometry" />
        </mxCell>
        <mxCell id="1oRLXJWAZkNwWkXzSEgh-2" value="&lt;b&gt;&lt;font style=&quot;font-size: 14px;&quot;&gt;Broadcast Settings&lt;/font&gt;&lt;/b&gt;&lt;br&gt;status = Idle" style="rounded=1;whiteSpace=wrap;html=1;fillColor=#dae8fc;strokeColor=#6c8ebf;" parent="WIyWlLk6GJQsqaUBKTNV-1" vertex="1">
          <mxGeometry x="-1840" y="-1930" width="180" height="90" as="geometry" />
        </mxCell>
        <mxCell id="1oRLXJWAZkNwWkXzSEgh-5" value="Read settings from XML file.&lt;br&gt;If not file does not exist, return&lt;br&gt;defualt settings" style="text;html=1;align=left;verticalAlign=middle;resizable=0;points=[];autosize=1;strokeColor=none;fillColor=none;" parent="WIyWlLk6GJQsqaUBKTNV-1" vertex="1">
          <mxGeometry x="-1655" y="-2208" width="180" height="60" as="geometry" />
        </mxCell>
        <mxCell id="1oRLXJWAZkNwWkXzSEgh-6" value="Gets UI references from buttons,&lt;br&gt;controls and indicators.&lt;br&gt;Enable Start,Exit, Settings buttons&lt;br&gt;&lt;font color=&quot;#ff0000&quot;&gt;Disable&lt;/font&gt; Stop button" style="text;html=1;align=left;verticalAlign=middle;resizable=0;points=[];autosize=1;strokeColor=none;fillColor=none;" parent="WIyWlLk6GJQsqaUBKTNV-1" vertex="1">
          <mxGeometry x="-1658" y="-2062.5" width="205" height="75" as="geometry" />
        </mxCell>
        <mxCell id="1oRLXJWAZkNwWkXzSEgh-7" value="Send settings to Acquisition &lt;br&gt;&amp;amp; Logging Loops.&lt;br&gt;" style="text;html=1;align=left;verticalAlign=middle;resizable=0;points=[];autosize=1;strokeColor=none;fillColor=none;" parent="WIyWlLk6GJQsqaUBKTNV-1" vertex="1">
          <mxGeometry x="-1710" y="-1840" width="170" height="40" as="geometry" />
        </mxCell>
        <mxCell id="1oRLXJWAZkNwWkXzSEgh-8" value="&lt;div style=&quot;&quot;&gt;&lt;span style=&quot;background-color: initial;&quot;&gt;&lt;b&gt;&lt;font style=&quot;font-size: 14px;&quot;&gt;Initialize&lt;/font&gt;&lt;/b&gt;&lt;/span&gt;&lt;/div&gt;&lt;div style=&quot;&quot;&gt;status = Idle&lt;span style=&quot;background-color: initial;&quot;&gt;&lt;b&gt;&lt;font style=&quot;font-size: 14px;&quot;&gt;&lt;br&gt;&lt;/font&gt;&lt;/b&gt;&lt;/span&gt;&lt;/div&gt;" style="rounded=1;whiteSpace=wrap;html=1;fontSize=12;glass=0;strokeWidth=1;shadow=0;align=center;" parent="WIyWlLk6GJQsqaUBKTNV-1" vertex="1">
          <mxGeometry x="-1460" y="-2223" width="180" height="90" as="geometry" />
        </mxCell>
        <mxCell id="1oRLXJWAZkNwWkXzSEgh-9" value="Acquistion Loop" style="text;html=1;align=center;verticalAlign=middle;resizable=0;points=[];autosize=1;strokeColor=none;fillColor=none;fontStyle=0;labelBackgroundColor=#ffea00;fontSize=20;" parent="WIyWlLk6GJQsqaUBKTNV-1" vertex="1">
          <mxGeometry x="-1457" y="-2294" width="165" height="40" as="geometry" />
        </mxCell>
        <mxCell id="1oRLXJWAZkNwWkXzSEgh-10" value="Logging Loop" style="text;html=1;align=center;verticalAlign=middle;resizable=0;points=[];autosize=1;strokeColor=none;fillColor=none;fontStyle=0;labelBackgroundColor=#ffea00;fontSize=20;" parent="WIyWlLk6GJQsqaUBKTNV-1" vertex="1">
          <mxGeometry x="-2204" y="-2292" width="140" height="40" as="geometry" />
        </mxCell>
        <mxCell id="1oRLXJWAZkNwWkXzSEgh-11" value="&lt;div style=&quot;&quot;&gt;&lt;span style=&quot;background-color: initial;&quot;&gt;&lt;b&gt;&lt;font style=&quot;font-size: 14px;&quot;&gt;Initialize&lt;/font&gt;&lt;/b&gt;&lt;/span&gt;&lt;/div&gt;&lt;div style=&quot;&quot;&gt;&lt;font style=&quot;font-size: 12px;&quot;&gt;status&amp;nbsp;&lt;/font&gt;&lt;font style=&quot;background-color: initial;&quot;&gt;= Idle&lt;/font&gt;&lt;font style=&quot;background-color: initial; font-size: 14px;&quot;&gt;&amp;nbsp;&lt;/font&gt;&lt;/div&gt;" style="rounded=1;whiteSpace=wrap;html=1;fontSize=12;glass=0;strokeWidth=1;shadow=0;align=center;" parent="WIyWlLk6GJQsqaUBKTNV-1" vertex="1">
          <mxGeometry x="-2230" y="-2223" width="180" height="90" as="geometry" />
        </mxCell>
        <mxCell id="1oRLXJWAZkNwWkXzSEgh-12" value="&lt;div style=&quot;&quot;&gt;&lt;span style=&quot;background-color: initial;&quot;&gt;&lt;b&gt;&lt;font style=&quot;font-size: 14px;&quot;&gt;Update Settings&lt;/font&gt;&lt;/b&gt;&lt;/span&gt;&lt;/div&gt;&lt;div style=&quot;&quot;&gt;status = Idle&lt;span style=&quot;background-color: initial;&quot;&gt;&lt;b&gt;&lt;font style=&quot;font-size: 14px;&quot;&gt;&lt;br&gt;&lt;/font&gt;&lt;/b&gt;&lt;/span&gt;&lt;/div&gt;" style="rounded=1;whiteSpace=wrap;html=1;fontSize=12;glass=0;strokeWidth=1;shadow=0;align=center;" parent="WIyWlLk6GJQsqaUBKTNV-1" vertex="1">
          <mxGeometry x="-1450" y="-1930" width="180" height="90" as="geometry" />
        </mxCell>
        <mxCell id="1oRLXJWAZkNwWkXzSEgh-14" value="" style="endArrow=openThin;dashed=1;html=1;dashPattern=1 3;strokeWidth=2;rounded=0;exitX=1;exitY=0.5;exitDx=0;exitDy=0;entryX=0;entryY=0.5;entryDx=0;entryDy=0;startArrow=none;startFill=0;endFill=0;" parent="WIyWlLk6GJQsqaUBKTNV-1" source="1oRLXJWAZkNwWkXzSEgh-2" target="1oRLXJWAZkNwWkXzSEgh-12" edge="1">
          <mxGeometry width="50" height="50" relative="1" as="geometry">
            <mxPoint x="-1510" y="-1790" as="sourcePoint" />
            <mxPoint x="-1460" y="-1840" as="targetPoint" />
          </mxGeometry>
        </mxCell>
        <mxCell id="Ww2ZU0e_n7lnZu7jizdA-6" value="Broadcast Hardware&lt;br&gt;Configuration Data" style="edgeLabel;html=1;align=center;verticalAlign=middle;resizable=0;points=[];" parent="1oRLXJWAZkNwWkXzSEgh-14" vertex="1" connectable="0">
          <mxGeometry x="-0.1778" relative="1" as="geometry">
            <mxPoint x="7" y="-1" as="offset" />
          </mxGeometry>
        </mxCell>
        <mxCell id="1oRLXJWAZkNwWkXzSEgh-15" value="&lt;div style=&quot;&quot;&gt;&lt;span style=&quot;background-color: initial;&quot;&gt;&lt;b&gt;&lt;font style=&quot;font-size: 14px;&quot;&gt;Update Settings&lt;/font&gt;&lt;/b&gt;&lt;/span&gt;&lt;/div&gt;&lt;div style=&quot;&quot;&gt;status = Idle&lt;span style=&quot;background-color: initial;&quot;&gt;&lt;b&gt;&lt;font style=&quot;font-size: 14px;&quot;&gt;&lt;br&gt;&lt;/font&gt;&lt;/b&gt;&lt;/span&gt;&lt;/div&gt;" style="rounded=1;whiteSpace=wrap;html=1;fontSize=12;glass=0;strokeWidth=1;shadow=0;align=center;" parent="WIyWlLk6GJQsqaUBKTNV-1" vertex="1">
          <mxGeometry x="-2230" y="-1930" width="180" height="90" as="geometry" />
        </mxCell>
        <mxCell id="jigHAK9xBuuQlrlT-xIV-1" value="" style="endArrow=none;dashed=1;html=1;dashPattern=1 3;strokeWidth=2;rounded=0;exitX=1;exitY=0.5;exitDx=0;exitDy=0;entryX=0;entryY=0.5;entryDx=0;entryDy=0;startArrow=classicThin;startFill=1;endFill=0;" parent="WIyWlLk6GJQsqaUBKTNV-1" edge="1">
          <mxGeometry width="50" height="50" relative="1" as="geometry">
            <mxPoint x="-2050" y="-1885.4299999999998" as="sourcePoint" />
            <mxPoint x="-1840" y="-1885.4299999999998" as="targetPoint" />
          </mxGeometry>
        </mxCell>
        <mxCell id="Ww2ZU0e_n7lnZu7jizdA-7" value="Broadcast Logging&lt;br&gt;Configuration Data" style="edgeLabel;html=1;align=center;verticalAlign=middle;resizable=0;points=[];" parent="jigHAK9xBuuQlrlT-xIV-1" vertex="1" connectable="0">
          <mxGeometry x="0.0417" y="2" relative="1" as="geometry">
            <mxPoint x="-3" as="offset" />
          </mxGeometry>
        </mxCell>
        <mxCell id="uEtpt4iqBrEO8YLCOElS-0" value="&lt;b&gt;&lt;font style=&quot;font-size: 14px;&quot;&gt;Update Status&lt;/font&gt;&lt;/b&gt;&lt;br&gt;&quot;Ready...&quot;&lt;br&gt;status = Idle" style="rounded=1;whiteSpace=wrap;html=1;fillColor=#fff2cc;strokeColor=#d6b656;" parent="WIyWlLk6GJQsqaUBKTNV-1" vertex="1">
          <mxGeometry x="-1840" y="-1760" width="180" height="80" as="geometry" />
        </mxCell>
        <mxCell id="eT-dHvlb4mc0tjw1Hitq-40" value="UI MHL:&amp;nbsp;Possible states&lt;br&gt;&lt;ol&gt;&lt;li&gt;&lt;span style=&quot;background-color: initial;&quot;&gt;Idle&lt;/span&gt;&lt;/li&gt;&lt;li&gt;&lt;span style=&quot;background-color: initial;&quot;&gt;Acquiring and Logging&lt;/span&gt;&lt;/li&gt;&lt;li&gt;&lt;span style=&quot;background-color: initial;&quot;&gt;Waiting for Exit&lt;/span&gt;&lt;/li&gt;&lt;li&gt;&lt;span style=&quot;background-color: initial;&quot;&gt;Waiting for Exit (Acq Stopped)&lt;/span&gt;&lt;/li&gt;&lt;li&gt;&lt;span style=&quot;background-color: initial;&quot;&gt;Waiting for Exit (Log Stopped)&lt;/span&gt;&lt;/li&gt;&lt;li&gt;&lt;span style=&quot;background-color: initial;&quot;&gt;Waiting for Stop&lt;/span&gt;&lt;/li&gt;&lt;li&gt;&lt;span style=&quot;background-color: initial;&quot;&gt;Waiting for Stop (Acq Stopped)&lt;/span&gt;&lt;/li&gt;&lt;li&gt;&lt;span style=&quot;background-color: initial;&quot;&gt;Waiting for Stop (Log Stopped)&lt;/span&gt;&lt;/li&gt;&lt;/ol&gt;" style="text;html=1;align=left;verticalAlign=middle;resizable=0;points=[];autosize=1;strokeColor=none;fillColor=none;" parent="WIyWlLk6GJQsqaUBKTNV-1" vertex="1">
          <mxGeometry x="-1857.5" y="-2455" width="225" height="170" as="geometry" />
        </mxCell>
        <mxCell id="eT-dHvlb4mc0tjw1Hitq-41" value="Logging MHL:&amp;nbsp;Possible states&lt;br&gt;&lt;ol&gt;&lt;li&gt;&lt;span style=&quot;background-color: initial;&quot;&gt;Idle&lt;/span&gt;&lt;/li&gt;&lt;li&gt;&lt;span style=&quot;background-color: initial;&quot;&gt;Logging&lt;/span&gt;&lt;/li&gt;&lt;/ol&gt;" style="text;html=1;align=left;verticalAlign=middle;resizable=0;points=[];autosize=1;strokeColor=none;fillColor=none;" parent="WIyWlLk6GJQsqaUBKTNV-1" vertex="1">
          <mxGeometry x="-2224" y="-2455" width="180" height="85" as="geometry" />
        </mxCell>
        <mxCell id="eT-dHvlb4mc0tjw1Hitq-42" value="Acquiring MHL:&amp;nbsp;Possible states&lt;br&gt;&lt;ol&gt;&lt;li&gt;&lt;span style=&quot;background-color: initial;&quot;&gt;Idle&lt;/span&gt;&lt;/li&gt;&lt;li&gt;&lt;span style=&quot;background-color: initial;&quot;&gt;Acquiring&lt;/span&gt;&lt;/li&gt;&lt;/ol&gt;" style="text;html=1;align=left;verticalAlign=middle;resizable=0;points=[];autosize=1;strokeColor=none;fillColor=none;" parent="WIyWlLk6GJQsqaUBKTNV-1" vertex="1">
          <mxGeometry x="-1467" y="-2455" width="185" height="85" as="geometry" />
        </mxCell>
      </root>
    </mxGraphModel>
  </diagram>
  <diagram name="Page 02" id="9eXzRZYAMQfNqOz0NnWo">
    <mxGraphModel dx="3442" dy="2997" grid="1" gridSize="5" guides="1" tooltips="1" connect="1" arrows="1" fold="1" page="1" pageScale="1" pageWidth="1169" pageHeight="827" math="0" shadow="0">
      <root>
        <mxCell id="t2HMfTXnqI6WZrlrMI9I-0" />
        <mxCell id="t2HMfTXnqI6WZrlrMI9I-1" parent="t2HMfTXnqI6WZrlrMI9I-0" />
        <mxCell id="t2HMfTXnqI6WZrlrMI9I-4" value="UI Message Loop" style="text;html=1;align=center;verticalAlign=middle;resizable=0;points=[];autosize=1;strokeColor=none;fillColor=none;fontStyle=0;labelBackgroundColor=#ffea00;fontSize=20;" parent="t2HMfTXnqI6WZrlrMI9I-1" vertex="1">
          <mxGeometry x="-1835" y="-2294" width="180" height="40" as="geometry" />
        </mxCell>
        <mxCell id="t2HMfTXnqI6WZrlrMI9I-13" value="Acquistion Loop" style="text;html=1;align=center;verticalAlign=middle;resizable=0;points=[];autosize=1;strokeColor=none;fillColor=none;fontStyle=0;labelBackgroundColor=#ffea00;fontSize=20;" parent="t2HMfTXnqI6WZrlrMI9I-1" vertex="1">
          <mxGeometry x="-1457" y="-2294" width="165" height="40" as="geometry" />
        </mxCell>
        <mxCell id="t2HMfTXnqI6WZrlrMI9I-14" value="Logging Loop" style="text;html=1;align=center;verticalAlign=middle;resizable=0;points=[];autosize=1;strokeColor=none;fillColor=none;fontStyle=0;labelBackgroundColor=#ffea00;fontSize=20;" parent="t2HMfTXnqI6WZrlrMI9I-1" vertex="1">
          <mxGeometry x="-2204" y="-2292" width="140" height="40" as="geometry" />
        </mxCell>
        <mxCell id="t2HMfTXnqI6WZrlrMI9I-20" value="Press &lt;b&gt;Start &lt;/b&gt;button" style="shape=process;whiteSpace=wrap;html=1;backgroundOutline=1;fillColor=#ffff88;strokeColor=#36393d;" parent="t2HMfTXnqI6WZrlrMI9I-1" vertex="1">
          <mxGeometry x="-1803" y="-2154" width="100" height="30" as="geometry" />
        </mxCell>
        <mxCell id="t2HMfTXnqI6WZrlrMI9I-21" style="edgeStyle=orthogonalEdgeStyle;rounded=0;orthogonalLoop=1;jettySize=auto;html=1;exitX=0.5;exitY=1;exitDx=0;exitDy=0;entryX=0.5;entryY=0;entryDx=0;entryDy=0;" parent="t2HMfTXnqI6WZrlrMI9I-1" source="t2HMfTXnqI6WZrlrMI9I-22" target="t2HMfTXnqI6WZrlrMI9I-64" edge="1">
          <mxGeometry relative="1" as="geometry" />
        </mxCell>
        <mxCell id="t2HMfTXnqI6WZrlrMI9I-22" value="&lt;b&gt;&lt;font style=&quot;font-size: 14px;&quot;&gt;Start&lt;/font&gt;&lt;/b&gt;&lt;br&gt;status:&amp;nbsp;Acquiring &amp;amp; Logging" style="rounded=1;whiteSpace=wrap;html=1;" parent="t2HMfTXnqI6WZrlrMI9I-1" vertex="1">
          <mxGeometry x="-1843.05" y="-2079" width="180" height="80" as="geometry" />
        </mxCell>
        <mxCell id="t2HMfTXnqI6WZrlrMI9I-23" value="Enable: Stop button&lt;br&gt;&lt;font color=&quot;#ff0000&quot;&gt;Disable&lt;/font&gt;: Start, Exit, Settings buttons" style="text;html=1;align=left;verticalAlign=middle;resizable=0;points=[];autosize=1;strokeColor=none;fillColor=none;" parent="t2HMfTXnqI6WZrlrMI9I-1" vertex="1">
          <mxGeometry x="-1843.0499999999997" y="-2124" width="210" height="45" as="geometry" />
        </mxCell>
        <mxCell id="t2HMfTXnqI6WZrlrMI9I-24" style="edgeStyle=orthogonalEdgeStyle;rounded=0;orthogonalLoop=1;jettySize=auto;html=1;exitX=0.5;exitY=1;exitDx=0;exitDy=0;entryX=0.5;entryY=0;entryDx=0;entryDy=0;" parent="t2HMfTXnqI6WZrlrMI9I-1" source="t2HMfTXnqI6WZrlrMI9I-25" target="t2HMfTXnqI6WZrlrMI9I-36" edge="1">
          <mxGeometry relative="1" as="geometry" />
        </mxCell>
        <mxCell id="t2HMfTXnqI6WZrlrMI9I-25" value="&lt;b&gt;&lt;font style=&quot;font-size: 14px;&quot;&gt;Start&lt;br&gt;&lt;/font&gt;&lt;/b&gt;status: Idle&lt;b&gt;&lt;font style=&quot;font-size: 14px;&quot;&gt;&lt;br&gt;&lt;/font&gt;&lt;/b&gt;" style="rounded=1;whiteSpace=wrap;html=1;" parent="t2HMfTXnqI6WZrlrMI9I-1" vertex="1">
          <mxGeometry x="-1453.05" y="-2079" width="180" height="80" as="geometry" />
        </mxCell>
        <mxCell id="t2HMfTXnqI6WZrlrMI9I-26" style="edgeStyle=orthogonalEdgeStyle;rounded=0;orthogonalLoop=1;jettySize=auto;html=1;exitX=0.5;exitY=1;exitDx=0;exitDy=0;entryX=0.5;entryY=0;entryDx=0;entryDy=0;" parent="t2HMfTXnqI6WZrlrMI9I-1" source="t2HMfTXnqI6WZrlrMI9I-27" target="t2HMfTXnqI6WZrlrMI9I-38" edge="1">
          <mxGeometry relative="1" as="geometry" />
        </mxCell>
        <mxCell id="t2HMfTXnqI6WZrlrMI9I-27" value="&lt;b&gt;&lt;font style=&quot;font-size: 14px;&quot;&gt;Start&lt;br&gt;&lt;/font&gt;&lt;/b&gt;status: Idle&lt;b&gt;&lt;font style=&quot;font-size: 14px;&quot;&gt;&lt;br&gt;&lt;/font&gt;&lt;/b&gt;" style="rounded=1;whiteSpace=wrap;html=1;" parent="t2HMfTXnqI6WZrlrMI9I-1" vertex="1">
          <mxGeometry x="-2233.08" y="-2079" width="180" height="80" as="geometry" />
        </mxCell>
        <mxCell id="t2HMfTXnqI6WZrlrMI9I-28" value="" style="endArrow=openThin;dashed=1;html=1;dashPattern=1 3;strokeWidth=2;rounded=0;exitX=1;exitY=0.5;exitDx=0;exitDy=0;entryX=0;entryY=0.5;entryDx=0;entryDy=0;startArrow=none;startFill=0;endFill=0;" parent="t2HMfTXnqI6WZrlrMI9I-1" source="t2HMfTXnqI6WZrlrMI9I-22" target="t2HMfTXnqI6WZrlrMI9I-25" edge="1">
          <mxGeometry width="50" height="50" relative="1" as="geometry">
            <mxPoint x="-1673.08" y="-2107" as="sourcePoint" />
            <mxPoint x="-1463.08" y="-2107" as="targetPoint" />
          </mxGeometry>
        </mxCell>
        <mxCell id="t2HMfTXnqI6WZrlrMI9I-29" value="Start" style="edgeLabel;html=1;align=center;verticalAlign=middle;resizable=0;points=[];" parent="t2HMfTXnqI6WZrlrMI9I-28" vertex="1" connectable="0">
          <mxGeometry x="-0.1368" y="-1" relative="1" as="geometry">
            <mxPoint x="4" y="-1" as="offset" />
          </mxGeometry>
        </mxCell>
        <mxCell id="t2HMfTXnqI6WZrlrMI9I-30" value="" style="endArrow=none;dashed=1;html=1;dashPattern=1 3;strokeWidth=2;rounded=0;exitX=1;exitY=0.5;exitDx=0;exitDy=0;entryX=0;entryY=0.5;entryDx=0;entryDy=0;startArrow=classicThin;startFill=1;endFill=0;" parent="t2HMfTXnqI6WZrlrMI9I-1" edge="1">
          <mxGeometry width="50" height="50" relative="1" as="geometry">
            <mxPoint x="-2053.08" y="-2037.4300000000003" as="sourcePoint" />
            <mxPoint x="-1843.08" y="-2037.4300000000003" as="targetPoint" />
          </mxGeometry>
        </mxCell>
        <mxCell id="t2HMfTXnqI6WZrlrMI9I-31" value="Start" style="edgeLabel;html=1;align=center;verticalAlign=middle;resizable=0;points=[];" parent="t2HMfTXnqI6WZrlrMI9I-30" vertex="1" connectable="0">
          <mxGeometry x="-0.0008" y="2" relative="1" as="geometry">
            <mxPoint x="1" y="1" as="offset" />
          </mxGeometry>
        </mxCell>
        <mxCell id="t2HMfTXnqI6WZrlrMI9I-34" value="Event" style="text;html=1;strokeColor=none;fillColor=none;align=center;verticalAlign=middle;whiteSpace=wrap;rounded=0;" parent="t2HMfTXnqI6WZrlrMI9I-1" vertex="1">
          <mxGeometry x="-1813" y="-2174" width="50" height="20" as="geometry" />
        </mxCell>
        <mxCell id="t2HMfTXnqI6WZrlrMI9I-35" style="edgeStyle=orthogonalEdgeStyle;rounded=0;orthogonalLoop=1;jettySize=auto;html=1;exitX=0.5;exitY=1;exitDx=0;exitDy=0;" parent="t2HMfTXnqI6WZrlrMI9I-1" source="t2HMfTXnqI6WZrlrMI9I-36" edge="1">
          <mxGeometry relative="1" as="geometry">
            <mxPoint x="-1363.286896551724" y="-1939" as="targetPoint" />
          </mxGeometry>
        </mxCell>
        <mxCell id="t2HMfTXnqI6WZrlrMI9I-36" value="&lt;b&gt;&lt;font style=&quot;font-size: 14px;&quot;&gt;Acquire&lt;br&gt;&lt;/font&gt;&lt;/b&gt;status: Acquiring&lt;b&gt;&lt;font style=&quot;font-size: 14px;&quot;&gt;&lt;br&gt;&lt;/font&gt;&lt;/b&gt;" style="rounded=1;whiteSpace=wrap;html=1;fillColor=#cdeb8b;strokeColor=#36393d;" parent="t2HMfTXnqI6WZrlrMI9I-1" vertex="1">
          <mxGeometry x="-1453.08" y="-1919" width="180" height="80" as="geometry" />
        </mxCell>
        <mxCell id="t2HMfTXnqI6WZrlrMI9I-37" style="edgeStyle=orthogonalEdgeStyle;rounded=0;orthogonalLoop=1;jettySize=auto;html=1;exitX=0.5;exitY=1;exitDx=0;exitDy=0;" parent="t2HMfTXnqI6WZrlrMI9I-1" source="t2HMfTXnqI6WZrlrMI9I-38" edge="1">
          <mxGeometry relative="1" as="geometry">
            <mxPoint x="-2143.05" y="-1939" as="targetPoint" />
            <Array as="points">
              <mxPoint x="-2143.05" y="-1819" />
              <mxPoint x="-2253.05" y="-1819" />
              <mxPoint x="-2253.05" y="-1939" />
            </Array>
          </mxGeometry>
        </mxCell>
        <mxCell id="t2HMfTXnqI6WZrlrMI9I-38" value="&lt;b&gt;&lt;font style=&quot;font-size: 14px;&quot;&gt;Log&lt;br&gt;&lt;/font&gt;&lt;/b&gt;status: Logging&lt;b&gt;&lt;font style=&quot;font-size: 14px;&quot;&gt;&lt;br&gt;&lt;/font&gt;&lt;/b&gt;" style="rounded=1;whiteSpace=wrap;html=1;fillColor=#cdeb8b;strokeColor=#36393d;" parent="t2HMfTXnqI6WZrlrMI9I-1" vertex="1">
          <mxGeometry x="-2233.05" y="-1919" width="180" height="80" as="geometry" />
        </mxCell>
        <mxCell id="t2HMfTXnqI6WZrlrMI9I-64" value="&lt;b&gt;&lt;font style=&quot;font-size: 14px;&quot;&gt;Update Status&lt;/font&gt;&lt;/b&gt;&lt;br&gt;&quot;Acquiring and Logging&quot;&lt;br&gt;status:&amp;nbsp;Acquiring &amp;amp; Logging" style="rounded=1;whiteSpace=wrap;html=1;fillColor=#fff2cc;strokeColor=#d6b656;" parent="t2HMfTXnqI6WZrlrMI9I-1" vertex="1">
          <mxGeometry x="-1843.05" y="-1919" width="180" height="80" as="geometry" />
        </mxCell>
        <mxCell id="t2HMfTXnqI6WZrlrMI9I-67" value="" style="verticalLabelPosition=bottom;verticalAlign=top;html=1;shape=mxgraph.basic.acute_triangle;dx=0.5;rotation=90;fillColor=#60a917;fontColor=#ffffff;strokeColor=#2D7600;" parent="t2HMfTXnqI6WZrlrMI9I-1" vertex="1">
          <mxGeometry x="-2077.99" y="-1908" width="17" height="16" as="geometry" />
        </mxCell>
        <mxCell id="t2HMfTXnqI6WZrlrMI9I-69" value="" style="verticalLabelPosition=bottom;verticalAlign=top;html=1;shape=mxgraph.basic.acute_triangle;dx=0.5;rotation=90;fillColor=#60a917;fontColor=#ffffff;strokeColor=#2D7600;" parent="t2HMfTXnqI6WZrlrMI9I-1" vertex="1">
          <mxGeometry x="-1298.02" y="-1910" width="17" height="16" as="geometry" />
        </mxCell>
        <mxCell id="t2HMfTXnqI6WZrlrMI9I-73" value="The system is already acquiring,&lt;br&gt;&lt;font color=&quot;#ff0000&quot;&gt;ignore&lt;/font&gt; the &quot;Start&quot; message." style="text;html=1;align=left;verticalAlign=middle;resizable=0;points=[];autosize=1;strokeColor=none;fillColor=none;" parent="t2HMfTXnqI6WZrlrMI9I-1" vertex="1">
          <mxGeometry x="-1543.03" y="-2124" width="195" height="45" as="geometry" />
        </mxCell>
        <mxCell id="t2HMfTXnqI6WZrlrMI9I-74" value="The system is already logging,&lt;br&gt;&lt;font color=&quot;#ff0000&quot;&gt;ignore&lt;/font&gt; the &quot;Start&quot; message." style="text;html=1;align=left;verticalAlign=middle;resizable=0;points=[];autosize=1;strokeColor=none;fillColor=none;" parent="t2HMfTXnqI6WZrlrMI9I-1" vertex="1">
          <mxGeometry x="-2318" y="-2124" width="185" height="45" as="geometry" />
        </mxCell>
        <mxCell id="t2HMfTXnqI6WZrlrMI9I-75" value="If the system is idle, &lt;br&gt;start logging." style="text;html=1;align=left;verticalAlign=middle;resizable=0;points=[];autosize=1;strokeColor=none;fillColor=none;" parent="t2HMfTXnqI6WZrlrMI9I-1" vertex="1">
          <mxGeometry x="-2123" y="-2124" width="125" height="45" as="geometry" />
        </mxCell>
        <mxCell id="t2HMfTXnqI6WZrlrMI9I-76" value="If the system is idle, &lt;br&gt;start the acquisition." style="text;html=1;align=left;verticalAlign=middle;resizable=0;points=[];autosize=1;strokeColor=none;fillColor=none;" parent="t2HMfTXnqI6WZrlrMI9I-1" vertex="1">
          <mxGeometry x="-1345.58" y="-2124" width="130" height="45" as="geometry" />
        </mxCell>
        <mxCell id="t2HMfTXnqI6WZrlrMI9I-77" value="Acquire more data while&lt;br&gt;&amp;nbsp;in the &quot;Acquiring&quot; state." style="text;html=1;align=left;verticalAlign=middle;resizable=0;points=[];autosize=1;strokeColor=none;fillColor=none;" parent="t2HMfTXnqI6WZrlrMI9I-1" vertex="1">
          <mxGeometry x="-1338" y="-1819" width="150" height="45" as="geometry" />
        </mxCell>
        <mxCell id="t2HMfTXnqI6WZrlrMI9I-78" value="&lt;font color=&quot;#ff0000&quot;&gt;Ignore&lt;/font&gt; &quot;Acquire&quot; messages &lt;br&gt;when the acquisition is Idle." style="text;html=1;align=left;verticalAlign=middle;resizable=0;points=[];autosize=1;strokeColor=none;fillColor=none;" parent="t2HMfTXnqI6WZrlrMI9I-1" vertex="1">
          <mxGeometry x="-1528.03" y="-1819" width="170" height="45" as="geometry" />
        </mxCell>
        <mxCell id="t2HMfTXnqI6WZrlrMI9I-79" value="Log more data while&lt;br&gt;&amp;nbsp;in the &quot;Acquiring&quot; state." style="text;html=1;align=left;verticalAlign=middle;resizable=0;points=[];autosize=1;strokeColor=none;fillColor=none;" parent="t2HMfTXnqI6WZrlrMI9I-1" vertex="1">
          <mxGeometry x="-2293" y="-1819" width="150" height="45" as="geometry" />
        </mxCell>
        <mxCell id="t2HMfTXnqI6WZrlrMI9I-80" value="&lt;font color=&quot;#ff0000&quot;&gt;Ignore&lt;/font&gt; &quot;Log&quot; messages &lt;br&gt;when the logging is Idle." style="text;html=1;align=left;verticalAlign=middle;resizable=0;points=[];autosize=1;strokeColor=none;fillColor=none;" parent="t2HMfTXnqI6WZrlrMI9I-1" vertex="1">
          <mxGeometry x="-2128" y="-1819" width="150" height="45" as="geometry" />
        </mxCell>
        <mxCell id="t2HMfTXnqI6WZrlrMI9I-83" value="UI MHL:&amp;nbsp;Possible states&lt;br&gt;&lt;ol&gt;&lt;li&gt;&lt;span style=&quot;background-color: initial;&quot;&gt;Idle&lt;/span&gt;&lt;/li&gt;&lt;li&gt;&lt;span style=&quot;background-color: initial;&quot;&gt;Acquiring and Logging&lt;/span&gt;&lt;/li&gt;&lt;li&gt;&lt;span style=&quot;background-color: initial;&quot;&gt;Waiting for Exit&lt;/span&gt;&lt;/li&gt;&lt;li&gt;&lt;span style=&quot;background-color: initial;&quot;&gt;Waiting for Exit (Acq Stopped)&lt;/span&gt;&lt;/li&gt;&lt;li&gt;&lt;span style=&quot;background-color: initial;&quot;&gt;Waiting for Exit (Log Stopped)&lt;/span&gt;&lt;/li&gt;&lt;li&gt;&lt;span style=&quot;background-color: initial;&quot;&gt;Waiting for Stop&lt;/span&gt;&lt;/li&gt;&lt;li&gt;&lt;span style=&quot;background-color: initial;&quot;&gt;Waiting for Stop (Acq Stopped)&lt;/span&gt;&lt;/li&gt;&lt;li&gt;&lt;span style=&quot;background-color: initial;&quot;&gt;Waiting for Stop (Log Stopped)&lt;/span&gt;&lt;/li&gt;&lt;/ol&gt;" style="text;html=1;align=left;verticalAlign=middle;resizable=0;points=[];autosize=1;strokeColor=none;fillColor=none;" parent="t2HMfTXnqI6WZrlrMI9I-1" vertex="1">
          <mxGeometry x="-1857.5" y="-2455" width="225" height="170" as="geometry" />
        </mxCell>
        <mxCell id="t2HMfTXnqI6WZrlrMI9I-84" value="Logging MHL:&amp;nbsp;Possible states&lt;br&gt;&lt;ol&gt;&lt;li&gt;&lt;span style=&quot;background-color: initial;&quot;&gt;Idle&lt;/span&gt;&lt;/li&gt;&lt;li&gt;&lt;span style=&quot;background-color: initial;&quot;&gt;Logging&lt;/span&gt;&lt;/li&gt;&lt;/ol&gt;" style="text;html=1;align=left;verticalAlign=middle;resizable=0;points=[];autosize=1;strokeColor=none;fillColor=none;" parent="t2HMfTXnqI6WZrlrMI9I-1" vertex="1">
          <mxGeometry x="-2224" y="-2455" width="180" height="85" as="geometry" />
        </mxCell>
        <mxCell id="t2HMfTXnqI6WZrlrMI9I-85" value="Acquiring MHL:&amp;nbsp;Possible states&lt;br&gt;&lt;ol&gt;&lt;li&gt;&lt;span style=&quot;background-color: initial;&quot;&gt;Idle&lt;/span&gt;&lt;/li&gt;&lt;li&gt;&lt;span style=&quot;background-color: initial;&quot;&gt;Acquiring&lt;/span&gt;&lt;/li&gt;&lt;/ol&gt;" style="text;html=1;align=left;verticalAlign=middle;resizable=0;points=[];autosize=1;strokeColor=none;fillColor=none;" parent="t2HMfTXnqI6WZrlrMI9I-1" vertex="1">
          <mxGeometry x="-1467" y="-2455" width="185" height="85" as="geometry" />
        </mxCell>
      </root>
    </mxGraphModel>
  </diagram>
  <diagram name="Page 03-a" id="e-nS6pn1VZMRHvxFMMdC">
    <mxGraphModel dx="3442" dy="2997" grid="1" gridSize="5" guides="1" tooltips="1" connect="1" arrows="1" fold="1" page="1" pageScale="1" pageWidth="1169" pageHeight="827" math="0" shadow="0">
      <root>
        <mxCell id="2R3qr1XrcOYRCPs-vfpU-0" />
        <mxCell id="2R3qr1XrcOYRCPs-vfpU-1" parent="2R3qr1XrcOYRCPs-vfpU-0" />
        <mxCell id="2R3qr1XrcOYRCPs-vfpU-2" value="UI Message Loop" style="text;html=1;align=center;verticalAlign=middle;resizable=0;points=[];autosize=1;strokeColor=none;fillColor=none;fontStyle=0;labelBackgroundColor=#ffea00;fontSize=20;" parent="2R3qr1XrcOYRCPs-vfpU-1" vertex="1">
          <mxGeometry x="-1837.28" y="-2435" width="180" height="40" as="geometry" />
        </mxCell>
        <mxCell id="2R3qr1XrcOYRCPs-vfpU-3" value="Acquistion Loop" style="text;html=1;align=center;verticalAlign=middle;resizable=0;points=[];autosize=1;strokeColor=none;fillColor=none;fontStyle=0;labelBackgroundColor=#ffea00;fontSize=20;" parent="2R3qr1XrcOYRCPs-vfpU-1" vertex="1">
          <mxGeometry x="-1459.28" y="-2435" width="165" height="40" as="geometry" />
        </mxCell>
        <mxCell id="2R3qr1XrcOYRCPs-vfpU-4" value="Logging Loop" style="text;html=1;align=center;verticalAlign=middle;resizable=0;points=[];autosize=1;strokeColor=none;fillColor=none;fontStyle=0;labelBackgroundColor=#ffea00;fontSize=20;" parent="2R3qr1XrcOYRCPs-vfpU-1" vertex="1">
          <mxGeometry x="-2206.28" y="-2433" width="140" height="40" as="geometry" />
        </mxCell>
        <mxCell id="2R3qr1XrcOYRCPs-vfpU-22" value="Press&amp;nbsp;&lt;b&gt;Stop&lt;/b&gt;&amp;nbsp;&lt;br&gt;button" style="shape=process;whiteSpace=wrap;html=1;backgroundOutline=1;fillColor=#ffff88;strokeColor=#36393d;" parent="2R3qr1XrcOYRCPs-vfpU-1" vertex="1">
          <mxGeometry x="-1798.5" y="-2341" width="100" height="30" as="geometry" />
        </mxCell>
        <mxCell id="2R3qr1XrcOYRCPs-vfpU-23" value="&lt;b&gt;&lt;font style=&quot;font-size: 14px;&quot;&gt;Stop&lt;/font&gt;&lt;/b&gt;&lt;br&gt;status:&amp;nbsp;Waiting for Stop" style="rounded=1;whiteSpace=wrap;html=1;" parent="2R3qr1XrcOYRCPs-vfpU-1" vertex="1">
          <mxGeometry x="-1838.53" y="-2263" width="180" height="80" as="geometry" />
        </mxCell>
        <mxCell id="2R3qr1XrcOYRCPs-vfpU-24" value="Enable:Start, Exit, Settings buttons&lt;br&gt;&lt;font color=&quot;#ff0000&quot;&gt;Disable&lt;/font&gt;: Stop button" style="text;html=1;align=left;verticalAlign=middle;resizable=0;points=[];autosize=1;strokeColor=none;fillColor=none;" parent="2R3qr1XrcOYRCPs-vfpU-1" vertex="1">
          <mxGeometry x="-1838.53" y="-2308.5" width="205" height="45" as="geometry" />
        </mxCell>
        <mxCell id="2R3qr1XrcOYRCPs-vfpU-25" style="rounded=0;orthogonalLoop=1;jettySize=auto;html=1;exitX=0;exitY=1;exitDx=0;exitDy=0;entryX=1;entryY=0;entryDx=0;entryDy=0;dashed=1;dashPattern=1 4;strokeWidth=2;" parent="2R3qr1XrcOYRCPs-vfpU-1" source="2R3qr1XrcOYRCPs-vfpU-27" target="2R3qr1XrcOYRCPs-vfpU-37" edge="1">
          <mxGeometry relative="1" as="geometry" />
        </mxCell>
        <mxCell id="2R3qr1XrcOYRCPs-vfpU-26" style="edgeStyle=orthogonalEdgeStyle;rounded=0;orthogonalLoop=1;jettySize=auto;html=1;exitX=0.5;exitY=1;exitDx=0;exitDy=0;entryX=0.5;entryY=0;entryDx=0;entryDy=0;" parent="2R3qr1XrcOYRCPs-vfpU-1" source="2R3qr1XrcOYRCPs-vfpU-27" target="2R3qr1XrcOYRCPs-vfpU-47" edge="1">
          <mxGeometry relative="1" as="geometry" />
        </mxCell>
        <mxCell id="2R3qr1XrcOYRCPs-vfpU-27" value="&lt;b&gt;&lt;font style=&quot;font-size: 14px;&quot;&gt;Stop&lt;br&gt;&lt;/font&gt;&lt;/b&gt;status: Idle&amp;nbsp;&lt;b&gt;&lt;font style=&quot;font-size: 14px;&quot;&gt;&lt;br&gt;&lt;/font&gt;&lt;/b&gt;" style="rounded=1;whiteSpace=wrap;html=1;" parent="2R3qr1XrcOYRCPs-vfpU-1" vertex="1">
          <mxGeometry x="-1448.53" y="-2263" width="180" height="80" as="geometry" />
        </mxCell>
        <mxCell id="2R3qr1XrcOYRCPs-vfpU-28" style="rounded=0;orthogonalLoop=1;jettySize=auto;html=1;exitX=1;exitY=1;exitDx=0;exitDy=0;entryX=0;entryY=0;entryDx=0;entryDy=0;dashed=1;dashPattern=1 4;strokeWidth=2;" parent="2R3qr1XrcOYRCPs-vfpU-1" source="2R3qr1XrcOYRCPs-vfpU-30" target="2R3qr1XrcOYRCPs-vfpU-38" edge="1">
          <mxGeometry relative="1" as="geometry" />
        </mxCell>
        <mxCell id="2R3qr1XrcOYRCPs-vfpU-29" style="edgeStyle=orthogonalEdgeStyle;rounded=0;orthogonalLoop=1;jettySize=auto;html=1;exitX=0.5;exitY=1;exitDx=0;exitDy=0;" parent="2R3qr1XrcOYRCPs-vfpU-1" source="2R3qr1XrcOYRCPs-vfpU-30" target="2R3qr1XrcOYRCPs-vfpU-48" edge="1">
          <mxGeometry relative="1" as="geometry" />
        </mxCell>
        <mxCell id="2R3qr1XrcOYRCPs-vfpU-30" value="&lt;b&gt;&lt;font style=&quot;font-size: 14px;&quot;&gt;Stop&lt;br&gt;&lt;/font&gt;&lt;/b&gt;status: Idle&lt;b&gt;&lt;font style=&quot;font-size: 14px;&quot;&gt;&lt;br&gt;&lt;/font&gt;&lt;/b&gt;" style="rounded=1;whiteSpace=wrap;html=1;" parent="2R3qr1XrcOYRCPs-vfpU-1" vertex="1">
          <mxGeometry x="-2228.5299999999997" y="-2263" width="180" height="80" as="geometry" />
        </mxCell>
        <mxCell id="2R3qr1XrcOYRCPs-vfpU-31" value="" style="endArrow=openThin;dashed=1;html=1;dashPattern=1 3;strokeWidth=2;rounded=0;exitX=1;exitY=0.5;exitDx=0;exitDy=0;entryX=0;entryY=0.5;entryDx=0;entryDy=0;startArrow=none;startFill=0;endFill=0;" parent="2R3qr1XrcOYRCPs-vfpU-1" source="2R3qr1XrcOYRCPs-vfpU-23" target="2R3qr1XrcOYRCPs-vfpU-27" edge="1">
          <mxGeometry width="50" height="50" relative="1" as="geometry">
            <mxPoint x="-1668.53" y="-2293" as="sourcePoint" />
            <mxPoint x="-1458.53" y="-2293" as="targetPoint" />
          </mxGeometry>
        </mxCell>
        <mxCell id="2R3qr1XrcOYRCPs-vfpU-32" value="Stop" style="edgeLabel;html=1;align=center;verticalAlign=middle;resizable=0;points=[];" parent="2R3qr1XrcOYRCPs-vfpU-31" vertex="1" connectable="0">
          <mxGeometry x="-0.1314" relative="1" as="geometry">
            <mxPoint x="-1" y="-1" as="offset" />
          </mxGeometry>
        </mxCell>
        <mxCell id="2R3qr1XrcOYRCPs-vfpU-33" value="" style="endArrow=none;dashed=1;html=1;dashPattern=1 3;strokeWidth=2;rounded=0;exitX=1;exitY=0.5;exitDx=0;exitDy=0;entryX=0;entryY=0.5;entryDx=0;entryDy=0;startArrow=classicThin;startFill=1;endFill=0;" parent="2R3qr1XrcOYRCPs-vfpU-1" edge="1">
          <mxGeometry width="50" height="50" relative="1" as="geometry">
            <mxPoint x="-2048.5299999999997" y="-2223.4300000000003" as="sourcePoint" />
            <mxPoint x="-1838.53" y="-2223.4300000000003" as="targetPoint" />
          </mxGeometry>
        </mxCell>
        <mxCell id="2R3qr1XrcOYRCPs-vfpU-34" value="Stop" style="edgeLabel;html=1;align=center;verticalAlign=middle;resizable=0;points=[];" parent="2R3qr1XrcOYRCPs-vfpU-33" vertex="1" connectable="0">
          <mxGeometry x="0.0535" relative="1" as="geometry">
            <mxPoint y="-1" as="offset" />
          </mxGeometry>
        </mxCell>
        <mxCell id="2R3qr1XrcOYRCPs-vfpU-35" value="Event" style="text;html=1;strokeColor=none;fillColor=none;align=center;verticalAlign=middle;whiteSpace=wrap;rounded=0;" parent="2R3qr1XrcOYRCPs-vfpU-1" vertex="1">
          <mxGeometry x="-1808.5" y="-2361" width="50" height="20" as="geometry" />
        </mxCell>
        <mxCell id="cg9HqVNkltEjdIky58Ju-0" style="edgeStyle=orthogonalEdgeStyle;rounded=0;orthogonalLoop=1;jettySize=auto;html=1;exitX=0.5;exitY=1;exitDx=0;exitDy=0;" parent="2R3qr1XrcOYRCPs-vfpU-1" source="2R3qr1XrcOYRCPs-vfpU-37" target="2R3qr1XrcOYRCPs-vfpU-44" edge="1">
          <mxGeometry relative="1" as="geometry" />
        </mxCell>
        <mxCell id="2R3qr1XrcOYRCPs-vfpU-37" value="&lt;b&gt;&lt;font style=&quot;font-size: 14px;&quot;&gt;Acquisition Stopped&lt;br&gt;&lt;/font&gt;&lt;/b&gt;status: &lt;br&gt;Waiting for Stop (Log Stopped)&lt;b&gt;&lt;font style=&quot;font-size: 14px;&quot;&gt;&lt;br&gt;&lt;/font&gt;&lt;/b&gt;" style="rounded=1;whiteSpace=wrap;html=1;" parent="2R3qr1XrcOYRCPs-vfpU-1" vertex="1">
          <mxGeometry x="-1837.28" y="-1941" width="180" height="80" as="geometry" />
        </mxCell>
        <mxCell id="2R3qr1XrcOYRCPs-vfpU-38" value="&lt;b&gt;&lt;font style=&quot;font-size: 14px;&quot;&gt;Logging Stopped&lt;br&gt;&lt;/font&gt;&lt;/b&gt;status: &lt;br&gt;Waiting for Stop (Log Stopped)&lt;b&gt;&lt;font style=&quot;font-size: 14px;&quot;&gt;&lt;br&gt;&lt;/font&gt;&lt;/b&gt;" style="rounded=1;whiteSpace=wrap;html=1;" parent="2R3qr1XrcOYRCPs-vfpU-1" vertex="1">
          <mxGeometry x="-1838.5" y="-2076" width="180" height="80" as="geometry" />
        </mxCell>
        <mxCell id="2R3qr1XrcOYRCPs-vfpU-44" value="&lt;b&gt;&lt;font style=&quot;font-size: 14px;&quot;&gt;Update Status&lt;/font&gt;&lt;/b&gt;&lt;br&gt;&quot;Ready...&quot;&lt;br&gt;status: Idle" style="rounded=1;whiteSpace=wrap;html=1;fillColor=#fff2cc;strokeColor=#d6b656;" parent="2R3qr1XrcOYRCPs-vfpU-1" vertex="1">
          <mxGeometry x="-1837.28" y="-1795" width="180" height="80" as="geometry" />
        </mxCell>
        <mxCell id="2R3qr1XrcOYRCPs-vfpU-47" value="&lt;b&gt;&lt;font style=&quot;font-size: 14px;&quot;&gt;Acquire&lt;br&gt;&lt;/font&gt;&lt;/b&gt;status: Idle&lt;b&gt;&lt;font style=&quot;font-size: 14px;&quot;&gt;&lt;br&gt;&lt;/font&gt;&lt;/b&gt;" style="rounded=1;whiteSpace=wrap;html=1;fillColor=#f8cecc;strokeColor=#b85450;" parent="2R3qr1XrcOYRCPs-vfpU-1" vertex="1">
          <mxGeometry x="-1448.56" y="-2076" width="180" height="80" as="geometry" />
        </mxCell>
        <mxCell id="2R3qr1XrcOYRCPs-vfpU-48" value="&lt;b&gt;&lt;font style=&quot;font-size: 14px;&quot;&gt;Log&lt;br&gt;&lt;/font&gt;&lt;/b&gt;status: Idle&lt;b&gt;&lt;font style=&quot;font-size: 14px;&quot;&gt;&lt;br&gt;&lt;/font&gt;&lt;/b&gt;" style="rounded=1;whiteSpace=wrap;html=1;fillColor=#f8cecc;strokeColor=#b85450;" parent="2R3qr1XrcOYRCPs-vfpU-1" vertex="1">
          <mxGeometry x="-2228.5299999999997" y="-2076" width="180" height="80" as="geometry" />
        </mxCell>
        <mxCell id="2R3qr1XrcOYRCPs-vfpU-50" value="" style="verticalLabelPosition=bottom;verticalAlign=top;html=1;shape=mxgraph.basic.rect;fillColor2=none;strokeWidth=1;size=20;indent=5;fixedWidth=0;fillColor=#FF0000;fontColor=#ffffff;strokeColor=#B20000;" parent="2R3qr1XrcOYRCPs-vfpU-1" vertex="1">
          <mxGeometry x="-2073.5" y="-2066" width="15.03" height="15" as="geometry" />
        </mxCell>
        <mxCell id="2R3qr1XrcOYRCPs-vfpU-52" value="" style="verticalLabelPosition=bottom;verticalAlign=top;html=1;shape=mxgraph.basic.rect;fillColor2=none;strokeWidth=1;size=20;indent=0;fixedWidth=0;fillColor=#FF0000;fontColor=#ffffff;strokeColor=#B20000;" parent="2R3qr1XrcOYRCPs-vfpU-1" vertex="1">
          <mxGeometry x="-1294.28" y="-2066" width="15.03" height="15" as="geometry" />
        </mxCell>
        <mxCell id="2R3qr1XrcOYRCPs-vfpU-53" value="If the system is acquiring, &lt;br&gt;stop the acquisition." style="text;html=1;align=left;verticalAlign=middle;resizable=0;points=[];autosize=1;strokeColor=none;fillColor=none;" parent="2R3qr1XrcOYRCPs-vfpU-1" vertex="1">
          <mxGeometry x="-1353.57" y="-2308.5" width="155" height="45" as="geometry" />
        </mxCell>
        <mxCell id="2R3qr1XrcOYRCPs-vfpU-54" value="The system is already Idle. &lt;br&gt;Ignore the &quot;Stop&quot; message." style="text;html=1;align=left;verticalAlign=middle;resizable=0;points=[];autosize=1;strokeColor=none;fillColor=none;" parent="2R3qr1XrcOYRCPs-vfpU-1" vertex="1">
          <mxGeometry x="-1513.5" y="-2308" width="165" height="45" as="geometry" />
        </mxCell>
        <mxCell id="2R3qr1XrcOYRCPs-vfpU-63" value="If the system is logging, &lt;br&gt;stop logging." style="text;html=1;align=left;verticalAlign=middle;resizable=0;points=[];autosize=1;strokeColor=none;fillColor=none;" parent="2R3qr1XrcOYRCPs-vfpU-1" vertex="1">
          <mxGeometry x="-2136.04" y="-2308.5" width="145" height="45" as="geometry" />
        </mxCell>
        <mxCell id="2R3qr1XrcOYRCPs-vfpU-64" value="The system is already Idle. &lt;br&gt;Ignore the &quot;Stop&quot; message." style="text;html=1;align=left;verticalAlign=middle;resizable=0;points=[];autosize=1;strokeColor=none;fillColor=none;" parent="2R3qr1XrcOYRCPs-vfpU-1" vertex="1">
          <mxGeometry x="-2296" y="-2308" width="165" height="45" as="geometry" />
        </mxCell>
      </root>
    </mxGraphModel>
  </diagram>
  <diagram name="Page 03-b" id="JAUYoyPv7yp0PonovYir">
    <mxGraphModel dx="3654" dy="3031" grid="1" gridSize="5" guides="1" tooltips="1" connect="1" arrows="1" fold="1" page="1" pageScale="1" pageWidth="1169" pageHeight="827" math="0" shadow="0">
      <root>
        <mxCell id="-G3FfFVB3lQMEeATOB7--0" />
        <mxCell id="-G3FfFVB3lQMEeATOB7--1" parent="-G3FfFVB3lQMEeATOB7--0" />
        <mxCell id="-G3FfFVB3lQMEeATOB7--2" value="UI Message Loop" style="text;html=1;align=center;verticalAlign=middle;resizable=0;points=[];autosize=1;strokeColor=none;fillColor=none;fontStyle=0;labelBackgroundColor=#ffea00;fontSize=20;" parent="-G3FfFVB3lQMEeATOB7--1" vertex="1">
          <mxGeometry x="-1837" y="-2435" width="180" height="40" as="geometry" />
        </mxCell>
        <mxCell id="-G3FfFVB3lQMEeATOB7--3" value="Acquistion Loop" style="text;html=1;align=center;verticalAlign=middle;resizable=0;points=[];autosize=1;strokeColor=none;fillColor=none;fontStyle=0;labelBackgroundColor=#ffea00;fontSize=20;" parent="-G3FfFVB3lQMEeATOB7--1" vertex="1">
          <mxGeometry x="-1459" y="-2435" width="165" height="40" as="geometry" />
        </mxCell>
        <mxCell id="-G3FfFVB3lQMEeATOB7--4" value="Logging Loop" style="text;html=1;align=center;verticalAlign=middle;resizable=0;points=[];autosize=1;strokeColor=none;fillColor=none;fontStyle=0;labelBackgroundColor=#ffea00;fontSize=20;" parent="-G3FfFVB3lQMEeATOB7--1" vertex="1">
          <mxGeometry x="-2206" y="-2433" width="140" height="40" as="geometry" />
        </mxCell>
        <mxCell id="-G3FfFVB3lQMEeATOB7--5" value="Press&amp;nbsp;&lt;b&gt;Stop&lt;/b&gt;&amp;nbsp;&lt;br&gt;button" style="shape=process;whiteSpace=wrap;html=1;backgroundOutline=1;fillColor=#ffff88;strokeColor=#36393d;" parent="-G3FfFVB3lQMEeATOB7--1" vertex="1">
          <mxGeometry x="-1798.22" y="-2341" width="100" height="30" as="geometry" />
        </mxCell>
        <mxCell id="-G3FfFVB3lQMEeATOB7--6" value="&lt;b&gt;&lt;font style=&quot;font-size: 14px;&quot;&gt;Stop&lt;/font&gt;&lt;/b&gt;&lt;br&gt;status:&amp;nbsp;Waiting for Stop" style="rounded=1;whiteSpace=wrap;html=1;" parent="-G3FfFVB3lQMEeATOB7--1" vertex="1">
          <mxGeometry x="-1838.25" y="-2263" width="180" height="80" as="geometry" />
        </mxCell>
        <mxCell id="-G3FfFVB3lQMEeATOB7--7" value="Enable:Start, Exit, Settings buttons&lt;br&gt;&lt;font color=&quot;#ff0000&quot;&gt;Disable&lt;/font&gt;: Stop button" style="text;html=1;align=left;verticalAlign=middle;resizable=0;points=[];autosize=1;strokeColor=none;fillColor=none;" parent="-G3FfFVB3lQMEeATOB7--1" vertex="1">
          <mxGeometry x="-1838.25" y="-2308.5" width="205" height="45" as="geometry" />
        </mxCell>
        <mxCell id="-G3FfFVB3lQMEeATOB7--8" style="rounded=0;orthogonalLoop=1;jettySize=auto;html=1;exitX=0;exitY=1;exitDx=0;exitDy=0;entryX=1;entryY=0;entryDx=0;entryDy=0;dashed=1;dashPattern=1 4;strokeWidth=2;" parent="-G3FfFVB3lQMEeATOB7--1" source="-G3FfFVB3lQMEeATOB7--10" target="-G3FfFVB3lQMEeATOB7--20" edge="1">
          <mxGeometry relative="1" as="geometry" />
        </mxCell>
        <mxCell id="-G3FfFVB3lQMEeATOB7--9" style="edgeStyle=orthogonalEdgeStyle;rounded=0;orthogonalLoop=1;jettySize=auto;html=1;exitX=0.5;exitY=1;exitDx=0;exitDy=0;entryX=0.5;entryY=0;entryDx=0;entryDy=0;" parent="-G3FfFVB3lQMEeATOB7--1" source="-G3FfFVB3lQMEeATOB7--10" target="-G3FfFVB3lQMEeATOB7--24" edge="1">
          <mxGeometry relative="1" as="geometry" />
        </mxCell>
        <mxCell id="-G3FfFVB3lQMEeATOB7--10" value="&lt;b&gt;&lt;font style=&quot;font-size: 14px;&quot;&gt;Stop&lt;br&gt;&lt;/font&gt;&lt;/b&gt;status: Idle&amp;nbsp;&lt;b&gt;&lt;font style=&quot;font-size: 14px;&quot;&gt;&lt;br&gt;&lt;/font&gt;&lt;/b&gt;" style="rounded=1;whiteSpace=wrap;html=1;" parent="-G3FfFVB3lQMEeATOB7--1" vertex="1">
          <mxGeometry x="-1448.25" y="-2263" width="180" height="80" as="geometry" />
        </mxCell>
        <mxCell id="-G3FfFVB3lQMEeATOB7--11" style="rounded=0;orthogonalLoop=1;jettySize=auto;html=1;exitX=1;exitY=1;exitDx=0;exitDy=0;entryX=0;entryY=0;entryDx=0;entryDy=0;dashed=1;dashPattern=1 4;strokeWidth=2;" parent="-G3FfFVB3lQMEeATOB7--1" source="-G3FfFVB3lQMEeATOB7--13" target="-G3FfFVB3lQMEeATOB7--21" edge="1">
          <mxGeometry relative="1" as="geometry" />
        </mxCell>
        <mxCell id="-G3FfFVB3lQMEeATOB7--12" style="edgeStyle=orthogonalEdgeStyle;rounded=0;orthogonalLoop=1;jettySize=auto;html=1;exitX=0.5;exitY=1;exitDx=0;exitDy=0;" parent="-G3FfFVB3lQMEeATOB7--1" source="-G3FfFVB3lQMEeATOB7--13" target="-G3FfFVB3lQMEeATOB7--25" edge="1">
          <mxGeometry relative="1" as="geometry" />
        </mxCell>
        <mxCell id="-G3FfFVB3lQMEeATOB7--13" value="&lt;b&gt;&lt;font style=&quot;font-size: 14px;&quot;&gt;Stop&lt;br&gt;&lt;/font&gt;&lt;/b&gt;status: Idle&lt;b&gt;&lt;font style=&quot;font-size: 14px;&quot;&gt;&lt;br&gt;&lt;/font&gt;&lt;/b&gt;" style="rounded=1;whiteSpace=wrap;html=1;" parent="-G3FfFVB3lQMEeATOB7--1" vertex="1">
          <mxGeometry x="-2228.2499999999995" y="-2263" width="180" height="80" as="geometry" />
        </mxCell>
        <mxCell id="-G3FfFVB3lQMEeATOB7--14" value="" style="endArrow=openThin;dashed=1;html=1;dashPattern=1 3;strokeWidth=2;rounded=0;exitX=1;exitY=0.5;exitDx=0;exitDy=0;entryX=0;entryY=0.5;entryDx=0;entryDy=0;startArrow=none;startFill=0;endFill=0;" parent="-G3FfFVB3lQMEeATOB7--1" source="-G3FfFVB3lQMEeATOB7--6" target="-G3FfFVB3lQMEeATOB7--10" edge="1">
          <mxGeometry width="50" height="50" relative="1" as="geometry">
            <mxPoint x="-1668.25" y="-2293" as="sourcePoint" />
            <mxPoint x="-1458.25" y="-2293" as="targetPoint" />
          </mxGeometry>
        </mxCell>
        <mxCell id="-G3FfFVB3lQMEeATOB7--15" value="Stop" style="edgeLabel;html=1;align=center;verticalAlign=middle;resizable=0;points=[];" parent="-G3FfFVB3lQMEeATOB7--14" vertex="1" connectable="0">
          <mxGeometry x="-0.1314" relative="1" as="geometry">
            <mxPoint x="-1" y="-1" as="offset" />
          </mxGeometry>
        </mxCell>
        <mxCell id="-G3FfFVB3lQMEeATOB7--16" value="" style="endArrow=none;dashed=1;html=1;dashPattern=1 3;strokeWidth=2;rounded=0;exitX=1;exitY=0.5;exitDx=0;exitDy=0;entryX=0;entryY=0.5;entryDx=0;entryDy=0;startArrow=classicThin;startFill=1;endFill=0;" parent="-G3FfFVB3lQMEeATOB7--1" edge="1">
          <mxGeometry width="50" height="50" relative="1" as="geometry">
            <mxPoint x="-2048.25" y="-2223.4300000000003" as="sourcePoint" />
            <mxPoint x="-1838.25" y="-2223.4300000000003" as="targetPoint" />
          </mxGeometry>
        </mxCell>
        <mxCell id="-G3FfFVB3lQMEeATOB7--17" value="Stop" style="edgeLabel;html=1;align=center;verticalAlign=middle;resizable=0;points=[];" parent="-G3FfFVB3lQMEeATOB7--16" vertex="1" connectable="0">
          <mxGeometry x="0.0535" relative="1" as="geometry">
            <mxPoint y="-1" as="offset" />
          </mxGeometry>
        </mxCell>
        <mxCell id="-G3FfFVB3lQMEeATOB7--18" value="Event" style="text;html=1;strokeColor=none;fillColor=none;align=center;verticalAlign=middle;whiteSpace=wrap;rounded=0;" parent="-G3FfFVB3lQMEeATOB7--1" vertex="1">
          <mxGeometry x="-1808.22" y="-2361" width="50" height="20" as="geometry" />
        </mxCell>
        <mxCell id="-G3FfFVB3lQMEeATOB7--20" value="&lt;b&gt;&lt;font style=&quot;font-size: 14px;&quot;&gt;Acquisition Stopped&lt;br&gt;&lt;/font&gt;&lt;/b&gt;status: &lt;br&gt;Waiting for Stop (Acq Stopped)&lt;b&gt;&lt;font style=&quot;font-size: 14px;&quot;&gt;&lt;br&gt;&lt;/font&gt;&lt;/b&gt;" style="rounded=1;whiteSpace=wrap;html=1;" parent="-G3FfFVB3lQMEeATOB7--1" vertex="1">
          <mxGeometry x="-1838.22" y="-2076" width="180" height="80" as="geometry" />
        </mxCell>
        <mxCell id="-G3FfFVB3lQMEeATOB7--21" value="&lt;b&gt;&lt;font style=&quot;font-size: 14px;&quot;&gt;Logging Stopped&lt;br&gt;&lt;/font&gt;&lt;/b&gt;status: &lt;br&gt;Waiting for Stop (Acq Stopped)&lt;b&gt;&lt;font style=&quot;font-size: 14px;&quot;&gt;&lt;br&gt;&lt;/font&gt;&lt;/b&gt;" style="rounded=1;whiteSpace=wrap;html=1;" parent="-G3FfFVB3lQMEeATOB7--1" vertex="1">
          <mxGeometry x="-1837" y="-1941" width="180" height="80" as="geometry" />
        </mxCell>
        <mxCell id="-G3FfFVB3lQMEeATOB7--22" value="&lt;b&gt;&lt;font style=&quot;font-size: 14px;&quot;&gt;Update Status&lt;/font&gt;&lt;/b&gt;&lt;br&gt;&quot;Ready...&quot;&lt;br&gt;status: Idle" style="rounded=1;whiteSpace=wrap;html=1;fillColor=#fff2cc;strokeColor=#d6b656;" parent="-G3FfFVB3lQMEeATOB7--1" vertex="1">
          <mxGeometry x="-1837" y="-1795" width="180" height="80" as="geometry" />
        </mxCell>
        <mxCell id="-G3FfFVB3lQMEeATOB7--23" style="rounded=0;orthogonalLoop=1;jettySize=auto;html=1;exitX=0.5;exitY=1;exitDx=0;exitDy=0;entryX=0.5;entryY=0;entryDx=0;entryDy=0;" parent="-G3FfFVB3lQMEeATOB7--1" source="-G3FfFVB3lQMEeATOB7--21" target="-G3FfFVB3lQMEeATOB7--22" edge="1">
          <mxGeometry relative="1" as="geometry">
            <mxPoint x="-1728.22" y="-1996" as="targetPoint" />
          </mxGeometry>
        </mxCell>
        <mxCell id="-G3FfFVB3lQMEeATOB7--24" value="&lt;b&gt;&lt;font style=&quot;font-size: 14px;&quot;&gt;Acquire&lt;br&gt;&lt;/font&gt;&lt;/b&gt;status: Idle&lt;b&gt;&lt;font style=&quot;font-size: 14px;&quot;&gt;&lt;br&gt;&lt;/font&gt;&lt;/b&gt;" style="rounded=1;whiteSpace=wrap;html=1;fillColor=#f8cecc;strokeColor=#b85450;" parent="-G3FfFVB3lQMEeATOB7--1" vertex="1">
          <mxGeometry x="-1448.25" y="-2076" width="180" height="80" as="geometry" />
        </mxCell>
        <mxCell id="-G3FfFVB3lQMEeATOB7--25" value="&lt;b&gt;&lt;font style=&quot;font-size: 14px;&quot;&gt;Log&lt;br&gt;&lt;/font&gt;&lt;/b&gt;status: Idle&lt;b&gt;&lt;font style=&quot;font-size: 14px;&quot;&gt;&lt;br&gt;&lt;/font&gt;&lt;/b&gt;" style="rounded=1;whiteSpace=wrap;html=1;fillColor=#f8cecc;strokeColor=#b85450;" parent="-G3FfFVB3lQMEeATOB7--1" vertex="1">
          <mxGeometry x="-2228.2499999999995" y="-2076" width="180" height="80" as="geometry" />
        </mxCell>
        <mxCell id="-G3FfFVB3lQMEeATOB7--26" value="" style="verticalLabelPosition=bottom;verticalAlign=top;html=1;shape=mxgraph.basic.rect;fillColor2=none;strokeWidth=1;size=20;indent=5;fixedWidth=0;fillColor=#FF0000;fontColor=#ffffff;strokeColor=#B20000;" parent="-G3FfFVB3lQMEeATOB7--1" vertex="1">
          <mxGeometry x="-2073.22" y="-2066" width="15.03" height="15" as="geometry" />
        </mxCell>
        <mxCell id="-G3FfFVB3lQMEeATOB7--27" value="" style="verticalLabelPosition=bottom;verticalAlign=top;html=1;shape=mxgraph.basic.rect;fillColor2=none;strokeWidth=1;size=20;indent=0;fixedWidth=0;fillColor=#FF0000;fontColor=#ffffff;strokeColor=#B20000;" parent="-G3FfFVB3lQMEeATOB7--1" vertex="1">
          <mxGeometry x="-1294" y="-2066" width="15.03" height="15" as="geometry" />
        </mxCell>
        <mxCell id="-G3FfFVB3lQMEeATOB7--28" value="If the system is acquiring, &lt;br&gt;stop the acquisition." style="text;html=1;align=left;verticalAlign=middle;resizable=0;points=[];autosize=1;strokeColor=none;fillColor=none;" parent="-G3FfFVB3lQMEeATOB7--1" vertex="1">
          <mxGeometry x="-1353.29" y="-2308.5" width="155" height="45" as="geometry" />
        </mxCell>
        <mxCell id="-G3FfFVB3lQMEeATOB7--29" value="The system is already Idle. &lt;br&gt;Ignore the &quot;Stop&quot; message." style="text;html=1;align=left;verticalAlign=middle;resizable=0;points=[];autosize=1;strokeColor=none;fillColor=none;" parent="-G3FfFVB3lQMEeATOB7--1" vertex="1">
          <mxGeometry x="-1513.22" y="-2308" width="165" height="45" as="geometry" />
        </mxCell>
        <mxCell id="-G3FfFVB3lQMEeATOB7--30" value="If the system is logging, &lt;br&gt;stop logging." style="text;html=1;align=left;verticalAlign=middle;resizable=0;points=[];autosize=1;strokeColor=none;fillColor=none;" parent="-G3FfFVB3lQMEeATOB7--1" vertex="1">
          <mxGeometry x="-2135.7599999999998" y="-2308.5" width="145" height="45" as="geometry" />
        </mxCell>
        <mxCell id="-G3FfFVB3lQMEeATOB7--31" value="The system is already Idle. &lt;br&gt;Ignore the &quot;Stop&quot; message." style="text;html=1;align=left;verticalAlign=middle;resizable=0;points=[];autosize=1;strokeColor=none;fillColor=none;" parent="-G3FfFVB3lQMEeATOB7--1" vertex="1">
          <mxGeometry x="-2295.72" y="-2308" width="165" height="45" as="geometry" />
        </mxCell>
      </root>
    </mxGraphModel>
  </diagram>
  <diagram name="Page 04" id="yrsi92125DjNiFZBnNHP">
    <mxGraphModel dx="3442" dy="3031" grid="1" gridSize="5" guides="1" tooltips="1" connect="1" arrows="1" fold="1" page="1" pageScale="1" pageWidth="1169" pageHeight="827" math="0" shadow="0">
      <root>
        <mxCell id="q4NovlgVCPA8MdfTRquo-0" />
        <mxCell id="q4NovlgVCPA8MdfTRquo-1" parent="q4NovlgVCPA8MdfTRquo-0" />
        <mxCell id="q4NovlgVCPA8MdfTRquo-2" value="UI Message Loop" style="text;html=1;align=center;verticalAlign=middle;resizable=0;points=[];autosize=1;strokeColor=none;fillColor=none;fontStyle=0;labelBackgroundColor=#ffea00;fontSize=20;" parent="q4NovlgVCPA8MdfTRquo-1" vertex="1">
          <mxGeometry x="-1835" y="-2294" width="180" height="40" as="geometry" />
        </mxCell>
        <mxCell id="q4NovlgVCPA8MdfTRquo-3" value="Acquistion Loop" style="text;html=1;align=center;verticalAlign=middle;resizable=0;points=[];autosize=1;strokeColor=none;fillColor=none;fontStyle=0;labelBackgroundColor=#ffea00;fontSize=20;" parent="q4NovlgVCPA8MdfTRquo-1" vertex="1">
          <mxGeometry x="-1457" y="-2294" width="165" height="40" as="geometry" />
        </mxCell>
        <mxCell id="q4NovlgVCPA8MdfTRquo-4" value="Logging Loop" style="text;html=1;align=center;verticalAlign=middle;resizable=0;points=[];autosize=1;strokeColor=none;fillColor=none;fontStyle=0;labelBackgroundColor=#ffea00;fontSize=20;" parent="q4NovlgVCPA8MdfTRquo-1" vertex="1">
          <mxGeometry x="-2204" y="-2292" width="140" height="40" as="geometry" />
        </mxCell>
        <mxCell id="q4NovlgVCPA8MdfTRquo-39" value="Press&amp;nbsp;&lt;b&gt;Settings&lt;/b&gt;&lt;br&gt;button" style="shape=process;whiteSpace=wrap;html=1;backgroundOutline=1;fillColor=#ffff88;strokeColor=#36393d;" parent="q4NovlgVCPA8MdfTRquo-1" vertex="1">
          <mxGeometry x="-1804.97" y="-2225" width="110" height="35" as="geometry" />
        </mxCell>
        <mxCell id="q4NovlgVCPA8MdfTRquo-40" style="edgeStyle=orthogonalEdgeStyle;rounded=0;orthogonalLoop=1;jettySize=auto;html=1;exitX=0.5;exitY=1;exitDx=0;exitDy=0;entryX=0.5;entryY=0;entryDx=0;entryDy=0;entryPerimeter=0;" parent="q4NovlgVCPA8MdfTRquo-1" source="q4NovlgVCPA8MdfTRquo-41" target="q4NovlgVCPA8MdfTRquo-70" edge="1">
          <mxGeometry relative="1" as="geometry" />
        </mxCell>
        <mxCell id="q4NovlgVCPA8MdfTRquo-41" value="&lt;b&gt;&lt;font style=&quot;font-size: 14px;&quot;&gt;Launch Settings Dialog&lt;/font&gt;&lt;/b&gt;&lt;br&gt;UI state: Idle&lt;br&gt;Call&amp;nbsp;&lt;font style=&quot;border-color: var(--border-color);&quot; face=&quot;Lucida Console&quot;&gt;Settings Dialog.vi&lt;/font&gt;" style="rounded=1;whiteSpace=wrap;html=1;" parent="q4NovlgVCPA8MdfTRquo-1" vertex="1">
          <mxGeometry x="-1835" y="-2175" width="180" height="93" as="geometry" />
        </mxCell>
        <mxCell id="q4NovlgVCPA8MdfTRquo-42" value="Event" style="text;html=1;strokeColor=none;fillColor=none;align=center;verticalAlign=middle;whiteSpace=wrap;rounded=0;" parent="q4NovlgVCPA8MdfTRquo-1" vertex="1">
          <mxGeometry x="-1814.97" y="-2245" width="50" height="20" as="geometry" />
        </mxCell>
        <mxCell id="q4NovlgVCPA8MdfTRquo-43" value="Cancelled? &lt;br&gt;= False" style="text;html=1;align=left;verticalAlign=middle;resizable=0;points=[];autosize=1;strokeColor=none;fillColor=none;rotation=0;" parent="q4NovlgVCPA8MdfTRquo-1" vertex="1">
          <mxGeometry x="-1739.97" y="-1940" width="80" height="45" as="geometry" />
        </mxCell>
        <mxCell id="q4NovlgVCPA8MdfTRquo-65" value="UI MHL:&amp;nbsp;Possible states&lt;br&gt;&lt;ol&gt;&lt;li&gt;&lt;span style=&quot;background-color: initial;&quot;&gt;Idle&lt;/span&gt;&lt;/li&gt;&lt;li&gt;&lt;span style=&quot;background-color: initial;&quot;&gt;Acquiring and Logging&lt;/span&gt;&lt;/li&gt;&lt;li&gt;&lt;span style=&quot;background-color: initial;&quot;&gt;Waiting for Exit&lt;/span&gt;&lt;/li&gt;&lt;li&gt;&lt;span style=&quot;background-color: initial;&quot;&gt;Waiting for Exit (Acq Stopped)&lt;/span&gt;&lt;/li&gt;&lt;li&gt;&lt;span style=&quot;background-color: initial;&quot;&gt;Waiting for Exit (Log Stopped)&lt;/span&gt;&lt;/li&gt;&lt;li&gt;&lt;span style=&quot;background-color: initial;&quot;&gt;Waiting for Stop&lt;/span&gt;&lt;/li&gt;&lt;li&gt;&lt;span style=&quot;background-color: initial;&quot;&gt;Waiting for Stop (Acq Stopped)&lt;/span&gt;&lt;/li&gt;&lt;li&gt;&lt;span style=&quot;background-color: initial;&quot;&gt;Waiting for Stop (Log Stopped)&lt;/span&gt;&lt;/li&gt;&lt;/ol&gt;" style="text;html=1;align=left;verticalAlign=middle;resizable=0;points=[];autosize=1;strokeColor=none;fillColor=none;" parent="q4NovlgVCPA8MdfTRquo-1" vertex="1">
          <mxGeometry x="-1857.5" y="-2455" width="225" height="170" as="geometry" />
        </mxCell>
        <mxCell id="q4NovlgVCPA8MdfTRquo-66" value="Logging MHL:&amp;nbsp;Possible states&lt;br&gt;&lt;ol&gt;&lt;li&gt;&lt;span style=&quot;background-color: initial;&quot;&gt;Idle&lt;/span&gt;&lt;/li&gt;&lt;li&gt;&lt;span style=&quot;background-color: initial;&quot;&gt;Logging&lt;/span&gt;&lt;/li&gt;&lt;/ol&gt;" style="text;html=1;align=left;verticalAlign=middle;resizable=0;points=[];autosize=1;strokeColor=none;fillColor=none;" parent="q4NovlgVCPA8MdfTRquo-1" vertex="1">
          <mxGeometry x="-2224" y="-2455" width="180" height="85" as="geometry" />
        </mxCell>
        <mxCell id="q4NovlgVCPA8MdfTRquo-67" value="Acquiring MHL:&amp;nbsp;Possible states&lt;br&gt;&lt;ol&gt;&lt;li&gt;&lt;span style=&quot;background-color: initial;&quot;&gt;Idle&lt;/span&gt;&lt;/li&gt;&lt;li&gt;&lt;span style=&quot;background-color: initial;&quot;&gt;Acquiring&lt;/span&gt;&lt;/li&gt;&lt;/ol&gt;" style="text;html=1;align=left;verticalAlign=middle;resizable=0;points=[];autosize=1;strokeColor=none;fillColor=none;" parent="q4NovlgVCPA8MdfTRquo-1" vertex="1">
          <mxGeometry x="-1467" y="-2455" width="185" height="85" as="geometry" />
        </mxCell>
        <mxCell id="q4NovlgVCPA8MdfTRquo-68" style="edgeStyle=orthogonalEdgeStyle;rounded=0;orthogonalLoop=1;jettySize=auto;html=1;exitX=0.5;exitY=1;exitDx=0;exitDy=0;exitPerimeter=0;entryX=0.5;entryY=0;entryDx=0;entryDy=0;" parent="q4NovlgVCPA8MdfTRquo-1" source="q4NovlgVCPA8MdfTRquo-70" target="q4NovlgVCPA8MdfTRquo-72" edge="1">
          <mxGeometry relative="1" as="geometry" />
        </mxCell>
        <mxCell id="q4NovlgVCPA8MdfTRquo-69" style="edgeStyle=orthogonalEdgeStyle;rounded=0;orthogonalLoop=1;jettySize=auto;html=1;exitX=0;exitY=0.5;exitDx=0;exitDy=0;exitPerimeter=0;" parent="q4NovlgVCPA8MdfTRquo-1" source="q4NovlgVCPA8MdfTRquo-70" edge="1">
          <mxGeometry relative="1" as="geometry">
            <mxPoint x="-1745" y="-1790" as="targetPoint" />
            <Array as="points">
              <mxPoint x="-1860" y="-1995" />
              <mxPoint x="-1860" y="-1790" />
              <mxPoint x="-1745" y="-1790" />
            </Array>
          </mxGeometry>
        </mxCell>
        <mxCell id="q4NovlgVCPA8MdfTRquo-70" value="Settings &lt;br&gt;changed?" style="strokeWidth=2;html=1;shape=mxgraph.flowchart.decision;whiteSpace=wrap;" parent="q4NovlgVCPA8MdfTRquo-1" vertex="1">
          <mxGeometry x="-1795.02" y="-2045" width="100" height="100" as="geometry" />
        </mxCell>
        <mxCell id="q4NovlgVCPA8MdfTRquo-71" style="edgeStyle=orthogonalEdgeStyle;rounded=0;orthogonalLoop=1;jettySize=auto;html=1;exitX=0.5;exitY=1;exitDx=0;exitDy=0;entryX=0.5;entryY=0;entryDx=0;entryDy=0;entryPerimeter=0;" parent="q4NovlgVCPA8MdfTRquo-1" source="q4NovlgVCPA8MdfTRquo-72" target="q4NovlgVCPA8MdfTRquo-74" edge="1">
          <mxGeometry relative="1" as="geometry" />
        </mxCell>
        <mxCell id="q4NovlgVCPA8MdfTRquo-72" value="&lt;font style=&quot;font-size: 14px;&quot;&gt;&lt;b&gt;Boradcast Settings&lt;/b&gt;&lt;br&gt;status: Idle&lt;br&gt;&lt;/font&gt;" style="rounded=1;whiteSpace=wrap;html=1;fillColor=#cce5ff;strokeColor=#36393d;" parent="q4NovlgVCPA8MdfTRquo-1" vertex="1">
          <mxGeometry x="-1835.02" y="-1890" width="180" height="80" as="geometry" />
        </mxCell>
        <mxCell id="q4NovlgVCPA8MdfTRquo-73" value="Yes" style="text;html=1;align=center;verticalAlign=middle;resizable=0;points=[];autosize=1;strokeColor=none;fillColor=none;" parent="q4NovlgVCPA8MdfTRquo-1" vertex="1">
          <mxGeometry x="-1784.97" y="-1955" width="40" height="30" as="geometry" />
        </mxCell>
        <mxCell id="q4NovlgVCPA8MdfTRquo-74" value="" style="strokeWidth=2;html=1;shape=mxgraph.flowchart.start_2;whiteSpace=wrap;" parent="q4NovlgVCPA8MdfTRquo-1" vertex="1">
          <mxGeometry x="-1765.02" y="-1761" width="40" height="40" as="geometry" />
        </mxCell>
        <mxCell id="q4NovlgVCPA8MdfTRquo-75" value="No" style="text;html=1;align=center;verticalAlign=middle;resizable=0;points=[];autosize=1;strokeColor=none;fillColor=none;" parent="q4NovlgVCPA8MdfTRquo-1" vertex="1">
          <mxGeometry x="-1824.97" y="-2020" width="35" height="30" as="geometry" />
        </mxCell>
        <mxCell id="q4NovlgVCPA8MdfTRquo-76" value="Cancelled? = True" style="text;html=1;align=left;verticalAlign=middle;resizable=0;points=[];autosize=1;strokeColor=none;fillColor=none;rotation=-90;" parent="q4NovlgVCPA8MdfTRquo-1" vertex="1">
          <mxGeometry x="-1934.97" y="-1900" width="120" height="30" as="geometry" />
        </mxCell>
      </root>
    </mxGraphModel>
  </diagram>
  <diagram name="Page 05" id="CZfuoNyFAbulkHf7Q2s5">
    <mxGraphModel dx="3886" dy="3128" grid="1" gridSize="5" guides="1" tooltips="1" connect="1" arrows="1" fold="1" page="1" pageScale="1" pageWidth="1169" pageHeight="827" math="0" shadow="0">
      <root>
        <mxCell id="5bpKZaD6Ys2ubk7HYNiY-0" />
        <mxCell id="5bpKZaD6Ys2ubk7HYNiY-1" parent="5bpKZaD6Ys2ubk7HYNiY-0" />
        <mxCell id="5bpKZaD6Ys2ubk7HYNiY-2" value="UI Message Loop" style="text;html=1;align=center;verticalAlign=middle;resizable=0;points=[];autosize=1;strokeColor=none;fillColor=none;fontStyle=0;labelBackgroundColor=#ffea00;fontSize=20;" vertex="1" parent="5bpKZaD6Ys2ubk7HYNiY-1">
          <mxGeometry x="-1837.28" y="-2435" width="180" height="40" as="geometry" />
        </mxCell>
        <mxCell id="5bpKZaD6Ys2ubk7HYNiY-3" value="Acquistion Loop" style="text;html=1;align=center;verticalAlign=middle;resizable=0;points=[];autosize=1;strokeColor=none;fillColor=none;fontStyle=0;labelBackgroundColor=#ffea00;fontSize=20;" vertex="1" parent="5bpKZaD6Ys2ubk7HYNiY-1">
          <mxGeometry x="-1459.28" y="-2435" width="165" height="40" as="geometry" />
        </mxCell>
        <mxCell id="5bpKZaD6Ys2ubk7HYNiY-4" value="Logging Loop" style="text;html=1;align=center;verticalAlign=middle;resizable=0;points=[];autosize=1;strokeColor=none;fillColor=none;fontStyle=0;labelBackgroundColor=#ffea00;fontSize=20;" vertex="1" parent="5bpKZaD6Ys2ubk7HYNiY-1">
          <mxGeometry x="-2206.28" y="-2433" width="140" height="40" as="geometry" />
        </mxCell>
        <mxCell id="5bpKZaD6Ys2ubk7HYNiY-5" value="Press&amp;nbsp;&lt;b&gt;X&lt;/b&gt;&amp;nbsp;&lt;br&gt;window button" style="shape=process;whiteSpace=wrap;html=1;backgroundOutline=1;fillColor=#ffff88;strokeColor=#36393d;" vertex="1" parent="5bpKZaD6Ys2ubk7HYNiY-1">
          <mxGeometry x="-1798.5" y="-2341" width="100" height="30" as="geometry" />
        </mxCell>
        <mxCell id="XsUeLfCeuBk521Eh78jC-0" style="edgeStyle=orthogonalEdgeStyle;rounded=0;orthogonalLoop=1;jettySize=auto;html=1;exitX=0.5;exitY=1;exitDx=0;exitDy=0;entryX=0.5;entryY=0;entryDx=0;entryDy=0;" edge="1" parent="5bpKZaD6Ys2ubk7HYNiY-1" source="5bpKZaD6Ys2ubk7HYNiY-6" target="h24cgyn1GVHZj733ZyAh-0">
          <mxGeometry relative="1" as="geometry" />
        </mxCell>
        <mxCell id="5bpKZaD6Ys2ubk7HYNiY-6" value="&lt;b&gt;&lt;font style=&quot;font-size: 14px;&quot;&gt;Confirm Quit&lt;/font&gt;&lt;/b&gt;&lt;br&gt;status: Any but&amp;nbsp;Acquiring and Logging" style="rounded=1;whiteSpace=wrap;html=1;" vertex="1" parent="5bpKZaD6Ys2ubk7HYNiY-1">
          <mxGeometry x="-1838.53" y="-2263" width="180" height="80" as="geometry" />
        </mxCell>
        <mxCell id="5bpKZaD6Ys2ubk7HYNiY-7" value="Enable:Start, Exit, Settings buttons&lt;br&gt;&lt;font color=&quot;#ff0000&quot;&gt;Disable&lt;/font&gt;: Stop button" style="text;html=1;align=left;verticalAlign=middle;resizable=0;points=[];autosize=1;strokeColor=none;fillColor=none;" vertex="1" parent="5bpKZaD6Ys2ubk7HYNiY-1">
          <mxGeometry x="-1838.53" y="-2308.5" width="205" height="45" as="geometry" />
        </mxCell>
        <mxCell id="5bpKZaD6Ys2ubk7HYNiY-9" style="edgeStyle=orthogonalEdgeStyle;rounded=0;orthogonalLoop=1;jettySize=auto;html=1;exitX=0.5;exitY=1;exitDx=0;exitDy=0;entryX=0.5;entryY=0;entryDx=0;entryDy=0;" edge="1" parent="5bpKZaD6Ys2ubk7HYNiY-1" source="5bpKZaD6Ys2ubk7HYNiY-10" target="5bpKZaD6Ys2ubk7HYNiY-23">
          <mxGeometry relative="1" as="geometry" />
        </mxCell>
        <mxCell id="5bpKZaD6Ys2ubk7HYNiY-10" value="&lt;b&gt;&lt;font style=&quot;font-size: 14px;&quot;&gt;Stop&lt;br&gt;&lt;/font&gt;&lt;/b&gt;status: Idle&amp;nbsp;&lt;b&gt;&lt;font style=&quot;font-size: 14px;&quot;&gt;&lt;br&gt;&lt;/font&gt;&lt;/b&gt;" style="rounded=1;whiteSpace=wrap;html=1;" vertex="1" parent="5bpKZaD6Ys2ubk7HYNiY-1">
          <mxGeometry x="-1448.53" y="-1865" width="180" height="80" as="geometry" />
        </mxCell>
        <mxCell id="5bpKZaD6Ys2ubk7HYNiY-12" style="edgeStyle=orthogonalEdgeStyle;rounded=0;orthogonalLoop=1;jettySize=auto;html=1;exitX=0.5;exitY=1;exitDx=0;exitDy=0;" edge="1" parent="5bpKZaD6Ys2ubk7HYNiY-1" source="5bpKZaD6Ys2ubk7HYNiY-13" target="5bpKZaD6Ys2ubk7HYNiY-24">
          <mxGeometry relative="1" as="geometry" />
        </mxCell>
        <mxCell id="5bpKZaD6Ys2ubk7HYNiY-13" value="&lt;b&gt;&lt;font style=&quot;font-size: 14px;&quot;&gt;Stop&lt;br&gt;&lt;/font&gt;&lt;/b&gt;status: Idle&lt;b&gt;&lt;font style=&quot;font-size: 14px;&quot;&gt;&lt;br&gt;&lt;/font&gt;&lt;/b&gt;" style="rounded=1;whiteSpace=wrap;html=1;" vertex="1" parent="5bpKZaD6Ys2ubk7HYNiY-1">
          <mxGeometry x="-2228.5299999999997" y="-1865" width="180" height="80" as="geometry" />
        </mxCell>
        <mxCell id="5bpKZaD6Ys2ubk7HYNiY-14" value="" style="endArrow=openThin;dashed=1;html=1;dashPattern=1 3;strokeWidth=2;rounded=0;exitX=1;exitY=0.5;exitDx=0;exitDy=0;entryX=0;entryY=0.5;entryDx=0;entryDy=0;startArrow=none;startFill=0;endFill=0;" edge="1" parent="5bpKZaD6Ys2ubk7HYNiY-1" target="5bpKZaD6Ys2ubk7HYNiY-10">
          <mxGeometry width="50" height="50" relative="1" as="geometry">
            <mxPoint x="-1658.5299999999997" y="-1825" as="sourcePoint" />
            <mxPoint x="-1458.53" y="-1895" as="targetPoint" />
          </mxGeometry>
        </mxCell>
        <mxCell id="5bpKZaD6Ys2ubk7HYNiY-15" value="Stop" style="edgeLabel;html=1;align=center;verticalAlign=middle;resizable=0;points=[];" vertex="1" connectable="0" parent="5bpKZaD6Ys2ubk7HYNiY-14">
          <mxGeometry x="-0.1314" relative="1" as="geometry">
            <mxPoint x="-1" y="-1" as="offset" />
          </mxGeometry>
        </mxCell>
        <mxCell id="5bpKZaD6Ys2ubk7HYNiY-16" value="" style="endArrow=none;dashed=1;html=1;dashPattern=1 3;strokeWidth=2;rounded=0;exitX=1;exitY=0.5;exitDx=0;exitDy=0;entryX=0;entryY=0.5;entryDx=0;entryDy=0;startArrow=classicThin;startFill=1;endFill=0;" edge="1" parent="5bpKZaD6Ys2ubk7HYNiY-1">
          <mxGeometry width="50" height="50" relative="1" as="geometry">
            <mxPoint x="-2048.5299999999997" y="-1825.4300000000003" as="sourcePoint" />
            <mxPoint x="-1838.53" y="-1825.4300000000003" as="targetPoint" />
          </mxGeometry>
        </mxCell>
        <mxCell id="5bpKZaD6Ys2ubk7HYNiY-17" value="Stop" style="edgeLabel;html=1;align=center;verticalAlign=middle;resizable=0;points=[];" vertex="1" connectable="0" parent="5bpKZaD6Ys2ubk7HYNiY-16">
          <mxGeometry x="0.0535" relative="1" as="geometry">
            <mxPoint y="-1" as="offset" />
          </mxGeometry>
        </mxCell>
        <mxCell id="5bpKZaD6Ys2ubk7HYNiY-18" value="Event" style="text;html=1;strokeColor=none;fillColor=none;align=center;verticalAlign=middle;whiteSpace=wrap;rounded=0;" vertex="1" parent="5bpKZaD6Ys2ubk7HYNiY-1">
          <mxGeometry x="-1808.5" y="-2361" width="50" height="20" as="geometry" />
        </mxCell>
        <mxCell id="5bpKZaD6Ys2ubk7HYNiY-19" style="edgeStyle=orthogonalEdgeStyle;rounded=0;orthogonalLoop=1;jettySize=auto;html=1;exitX=0.5;exitY=1;exitDx=0;exitDy=0;" edge="1" parent="5bpKZaD6Ys2ubk7HYNiY-1" source="5bpKZaD6Ys2ubk7HYNiY-20" target="5bpKZaD6Ys2ubk7HYNiY-22">
          <mxGeometry relative="1" as="geometry" />
        </mxCell>
        <mxCell id="5bpKZaD6Ys2ubk7HYNiY-20" value="&lt;b&gt;&lt;font style=&quot;font-size: 14px;&quot;&gt;Stop&lt;br&gt;&lt;/font&gt;&lt;/b&gt;status:&amp;nbsp;Waiting for Exit&lt;b&gt;&lt;font style=&quot;font-size: 14px;&quot;&gt;&lt;br&gt;&lt;/font&gt;&lt;/b&gt;" style="rounded=1;whiteSpace=wrap;html=1;" vertex="1" parent="5bpKZaD6Ys2ubk7HYNiY-1">
          <mxGeometry x="-1837.28" y="-1865" width="180" height="80" as="geometry" />
        </mxCell>
        <mxCell id="5bpKZaD6Ys2ubk7HYNiY-21" value="&lt;b&gt;&lt;font style=&quot;font-size: 14px;&quot;&gt;Exit&lt;br&gt;&lt;/font&gt;&lt;/b&gt;status: Idle&lt;b&gt;&lt;font style=&quot;font-size: 14px;&quot;&gt;&lt;br&gt;&lt;/font&gt;&lt;/b&gt;" style="rounded=1;whiteSpace=wrap;html=1;" vertex="1" parent="5bpKZaD6Ys2ubk7HYNiY-1">
          <mxGeometry x="-1988.5" y="-1996" width="180" height="80" as="geometry" />
        </mxCell>
        <mxCell id="5bpKZaD6Ys2ubk7HYNiY-22" value="&lt;b&gt;&lt;font style=&quot;font-size: 14px;&quot;&gt;Update Status&lt;/font&gt;&lt;/b&gt;&lt;br&gt;&quot;Ready...&quot;&lt;br&gt;status: Idle" style="rounded=1;whiteSpace=wrap;html=1;fillColor=#fff2cc;strokeColor=#d6b656;" vertex="1" parent="5bpKZaD6Ys2ubk7HYNiY-1">
          <mxGeometry x="-1837.28" y="-1639" width="180" height="80" as="geometry" />
        </mxCell>
        <mxCell id="5bpKZaD6Ys2ubk7HYNiY-23" value="&lt;b&gt;&lt;font style=&quot;font-size: 14px;&quot;&gt;Acquire&lt;br&gt;&lt;/font&gt;&lt;/b&gt;status: Idle&lt;b&gt;&lt;font style=&quot;font-size: 14px;&quot;&gt;&lt;br&gt;&lt;/font&gt;&lt;/b&gt;" style="rounded=1;whiteSpace=wrap;html=1;fillColor=#f8cecc;strokeColor=#b85450;" vertex="1" parent="5bpKZaD6Ys2ubk7HYNiY-1">
          <mxGeometry x="-1448.56" y="-1678" width="180" height="80" as="geometry" />
        </mxCell>
        <mxCell id="5bpKZaD6Ys2ubk7HYNiY-24" value="&lt;b&gt;&lt;font style=&quot;font-size: 14px;&quot;&gt;Log&lt;br&gt;&lt;/font&gt;&lt;/b&gt;status: Idle&lt;b&gt;&lt;font style=&quot;font-size: 14px;&quot;&gt;&lt;br&gt;&lt;/font&gt;&lt;/b&gt;" style="rounded=1;whiteSpace=wrap;html=1;fillColor=#f8cecc;strokeColor=#b85450;" vertex="1" parent="5bpKZaD6Ys2ubk7HYNiY-1">
          <mxGeometry x="-2228.5299999999997" y="-1678" width="180" height="80" as="geometry" />
        </mxCell>
        <mxCell id="5bpKZaD6Ys2ubk7HYNiY-25" value="" style="verticalLabelPosition=bottom;verticalAlign=top;html=1;shape=mxgraph.basic.rect;fillColor2=none;strokeWidth=1;size=20;indent=5;fixedWidth=0;fillColor=#FF0000;fontColor=#ffffff;strokeColor=#B20000;" vertex="1" parent="5bpKZaD6Ys2ubk7HYNiY-1">
          <mxGeometry x="-2073.5" y="-2066" width="15.03" height="15" as="geometry" />
        </mxCell>
        <mxCell id="5bpKZaD6Ys2ubk7HYNiY-26" value="" style="verticalLabelPosition=bottom;verticalAlign=top;html=1;shape=mxgraph.basic.rect;fillColor2=none;strokeWidth=1;size=20;indent=0;fixedWidth=0;fillColor=#FF0000;fontColor=#ffffff;strokeColor=#B20000;" vertex="1" parent="5bpKZaD6Ys2ubk7HYNiY-1">
          <mxGeometry x="-1294.28" y="-2066" width="15.03" height="15" as="geometry" />
        </mxCell>
        <mxCell id="5bpKZaD6Ys2ubk7HYNiY-27" value="If the system is acquiring, &lt;br&gt;stop the acquisition." style="text;html=1;align=left;verticalAlign=middle;resizable=0;points=[];autosize=1;strokeColor=none;fillColor=none;" vertex="1" parent="5bpKZaD6Ys2ubk7HYNiY-1">
          <mxGeometry x="-1353.57" y="-2308.5" width="155" height="45" as="geometry" />
        </mxCell>
        <mxCell id="5bpKZaD6Ys2ubk7HYNiY-28" value="The system is already Idle. &lt;br&gt;Ignore the &quot;Stop&quot; message." style="text;html=1;align=left;verticalAlign=middle;resizable=0;points=[];autosize=1;strokeColor=none;fillColor=none;" vertex="1" parent="5bpKZaD6Ys2ubk7HYNiY-1">
          <mxGeometry x="-1513.5" y="-2308" width="165" height="45" as="geometry" />
        </mxCell>
        <mxCell id="5bpKZaD6Ys2ubk7HYNiY-29" value="If the system is logging, &lt;br&gt;stop logging." style="text;html=1;align=left;verticalAlign=middle;resizable=0;points=[];autosize=1;strokeColor=none;fillColor=none;" vertex="1" parent="5bpKZaD6Ys2ubk7HYNiY-1">
          <mxGeometry x="-2136.04" y="-2308.5" width="145" height="45" as="geometry" />
        </mxCell>
        <mxCell id="5bpKZaD6Ys2ubk7HYNiY-30" value="The system is already Idle. &lt;br&gt;Ignore the &quot;Stop&quot; message." style="text;html=1;align=left;verticalAlign=middle;resizable=0;points=[];autosize=1;strokeColor=none;fillColor=none;" vertex="1" parent="5bpKZaD6Ys2ubk7HYNiY-1">
          <mxGeometry x="-2296" y="-2308" width="165" height="45" as="geometry" />
        </mxCell>
        <mxCell id="XsUeLfCeuBk521Eh78jC-1" style="edgeStyle=orthogonalEdgeStyle;rounded=0;orthogonalLoop=1;jettySize=auto;html=1;exitX=0;exitY=0.5;exitDx=0;exitDy=0;" edge="1" parent="5bpKZaD6Ys2ubk7HYNiY-1" source="h24cgyn1GVHZj733ZyAh-0" target="5bpKZaD6Ys2ubk7HYNiY-21">
          <mxGeometry relative="1" as="geometry" />
        </mxCell>
        <mxCell id="XsUeLfCeuBk521Eh78jC-4" style="edgeStyle=orthogonalEdgeStyle;rounded=0;orthogonalLoop=1;jettySize=auto;html=1;exitX=0.5;exitY=1;exitDx=0;exitDy=0;entryX=0.5;entryY=0;entryDx=0;entryDy=0;" edge="1" parent="5bpKZaD6Ys2ubk7HYNiY-1" source="h24cgyn1GVHZj733ZyAh-0" target="5bpKZaD6Ys2ubk7HYNiY-20">
          <mxGeometry relative="1" as="geometry" />
        </mxCell>
        <mxCell id="h24cgyn1GVHZj733ZyAh-0" value="status !=&amp;nbsp;&lt;div&gt;Acquiring&amp;nbsp;&lt;/div&gt;&lt;div&gt;and Logging&lt;/div&gt;" style="rhombus;whiteSpace=wrap;html=1;" vertex="1" parent="5bpKZaD6Ys2ubk7HYNiY-1">
          <mxGeometry x="-1821.03" y="-2150" width="147.5" height="140" as="geometry" />
        </mxCell>
        <mxCell id="XsUeLfCeuBk521Eh78jC-2" value="Yes" style="text;html=1;align=center;verticalAlign=middle;resizable=0;points=[];autosize=1;strokeColor=none;fillColor=none;" vertex="1" parent="5bpKZaD6Ys2ubk7HYNiY-1">
          <mxGeometry x="-1855" y="-2106" width="40" height="30" as="geometry" />
        </mxCell>
        <mxCell id="XsUeLfCeuBk521Eh78jC-3" value="Next: Same as Exit Event&amp;nbsp;" style="text;html=1;align=center;verticalAlign=middle;resizable=0;points=[];autosize=1;strokeColor=none;fillColor=none;" vertex="1" parent="5bpKZaD6Ys2ubk7HYNiY-1">
          <mxGeometry x="-1985" y="-1907" width="160" height="30" as="geometry" />
        </mxCell>
        <mxCell id="jr3pURR-joCIHwTjyhcl-2" value="No" style="text;html=1;align=center;verticalAlign=middle;resizable=0;points=[];autosize=1;strokeColor=none;fillColor=none;" vertex="1" parent="5bpKZaD6Ys2ubk7HYNiY-1">
          <mxGeometry x="-1750" y="-2010" width="35" height="30" as="geometry" />
        </mxCell>
      </root>
    </mxGraphModel>
  </diagram>
  <diagram name="Page 06" id="lPmzYKQqrqt9ND1K2YMg">
    <mxGraphModel dx="3435" dy="2939" grid="1" gridSize="5" guides="1" tooltips="1" connect="1" arrows="1" fold="1" page="1" pageScale="1" pageWidth="1169" pageHeight="827" math="0" shadow="0">
      <root>
        <mxCell id="gXlhPtz62oq5F0h1NBwY-0" />
        <mxCell id="gXlhPtz62oq5F0h1NBwY-1" parent="gXlhPtz62oq5F0h1NBwY-0" />
        <mxCell id="gXlhPtz62oq5F0h1NBwY-2" value="UI Message Loop" style="text;html=1;align=center;verticalAlign=middle;resizable=0;points=[];autosize=1;strokeColor=none;fillColor=none;fontStyle=0;labelBackgroundColor=#ffea00;fontSize=20;" vertex="1" parent="gXlhPtz62oq5F0h1NBwY-1">
          <mxGeometry x="-1837.28" y="-2435" width="180" height="40" as="geometry" />
        </mxCell>
        <mxCell id="gXlhPtz62oq5F0h1NBwY-3" value="Acquistion Loop" style="text;html=1;align=center;verticalAlign=middle;resizable=0;points=[];autosize=1;strokeColor=none;fillColor=none;fontStyle=0;labelBackgroundColor=#ffea00;fontSize=20;" vertex="1" parent="gXlhPtz62oq5F0h1NBwY-1">
          <mxGeometry x="-1459.28" y="-2435" width="165" height="40" as="geometry" />
        </mxCell>
        <mxCell id="gXlhPtz62oq5F0h1NBwY-4" value="Logging Loop" style="text;html=1;align=center;verticalAlign=middle;resizable=0;points=[];autosize=1;strokeColor=none;fillColor=none;fontStyle=0;labelBackgroundColor=#ffea00;fontSize=20;" vertex="1" parent="gXlhPtz62oq5F0h1NBwY-1">
          <mxGeometry x="-2206.28" y="-2433" width="140" height="40" as="geometry" />
        </mxCell>
        <mxCell id="gXlhPtz62oq5F0h1NBwY-5" value="Press &lt;b&gt;Exit&lt;/b&gt;&amp;nbsp;&lt;br&gt;button" style="shape=process;whiteSpace=wrap;html=1;backgroundOutline=1;fillColor=#ffff88;strokeColor=#36393d;" vertex="1" parent="gXlhPtz62oq5F0h1NBwY-1">
          <mxGeometry x="-1798.5" y="-2341" width="100" height="30" as="geometry" />
        </mxCell>
        <mxCell id="gXlhPtz62oq5F0h1NBwY-6" value="&lt;b&gt;&lt;font style=&quot;font-size: 14px;&quot;&gt;Exit&lt;/font&gt;&lt;/b&gt;&lt;br&gt;status: Idle" style="rounded=1;whiteSpace=wrap;html=1;" vertex="1" parent="gXlhPtz62oq5F0h1NBwY-1">
          <mxGeometry x="-1838.53" y="-2263" width="180" height="80" as="geometry" />
        </mxCell>
        <mxCell id="gXlhPtz62oq5F0h1NBwY-7" value="UI queue is released" style="text;html=1;align=left;verticalAlign=middle;resizable=0;points=[];autosize=1;strokeColor=none;fillColor=none;" vertex="1" parent="gXlhPtz62oq5F0h1NBwY-1">
          <mxGeometry x="-1813.53" y="-2293" width="130" height="30" as="geometry" />
        </mxCell>
        <mxCell id="gXlhPtz62oq5F0h1NBwY-10" value="&lt;b&gt;&lt;font style=&quot;font-size: 14px;&quot;&gt;Exit&lt;br&gt;&lt;/font&gt;&lt;/b&gt;status: (Don&#39;t care)&amp;nbsp;&lt;b&gt;&lt;font style=&quot;font-size: 14px;&quot;&gt;&lt;br&gt;&lt;/font&gt;&lt;/b&gt;" style="rounded=1;whiteSpace=wrap;html=1;" vertex="1" parent="gXlhPtz62oq5F0h1NBwY-1">
          <mxGeometry x="-1448.53" y="-2263" width="180" height="80" as="geometry" />
        </mxCell>
        <mxCell id="gXlhPtz62oq5F0h1NBwY-13" value="&lt;b&gt;&lt;font style=&quot;font-size: 14px;&quot;&gt;Exit&lt;br&gt;&lt;/font&gt;&lt;/b&gt;status: (Don&#39;t care)&lt;b&gt;&lt;font style=&quot;font-size: 14px;&quot;&gt;&lt;br&gt;&lt;/font&gt;&lt;/b&gt;" style="rounded=1;whiteSpace=wrap;html=1;" vertex="1" parent="gXlhPtz62oq5F0h1NBwY-1">
          <mxGeometry x="-2228.5299999999997" y="-2263" width="180" height="80" as="geometry" />
        </mxCell>
        <mxCell id="gXlhPtz62oq5F0h1NBwY-14" value="" style="endArrow=openThin;dashed=1;html=1;dashPattern=1 3;strokeWidth=2;rounded=0;exitX=1;exitY=0.5;exitDx=0;exitDy=0;entryX=0;entryY=0.5;entryDx=0;entryDy=0;startArrow=none;startFill=0;endFill=0;" edge="1" parent="gXlhPtz62oq5F0h1NBwY-1" source="gXlhPtz62oq5F0h1NBwY-6" target="gXlhPtz62oq5F0h1NBwY-10">
          <mxGeometry width="50" height="50" relative="1" as="geometry">
            <mxPoint x="-1668.53" y="-2293" as="sourcePoint" />
            <mxPoint x="-1458.53" y="-2293" as="targetPoint" />
          </mxGeometry>
        </mxCell>
        <mxCell id="gXlhPtz62oq5F0h1NBwY-15" value="Exit" style="edgeLabel;html=1;align=center;verticalAlign=middle;resizable=0;points=[];" vertex="1" connectable="0" parent="gXlhPtz62oq5F0h1NBwY-14">
          <mxGeometry x="-0.1314" relative="1" as="geometry">
            <mxPoint x="-1" y="-1" as="offset" />
          </mxGeometry>
        </mxCell>
        <mxCell id="gXlhPtz62oq5F0h1NBwY-16" value="" style="endArrow=none;dashed=1;html=1;dashPattern=1 3;strokeWidth=2;rounded=0;exitX=1;exitY=0.5;exitDx=0;exitDy=0;entryX=0;entryY=0.5;entryDx=0;entryDy=0;startArrow=classicThin;startFill=1;endFill=0;" edge="1" parent="gXlhPtz62oq5F0h1NBwY-1">
          <mxGeometry width="50" height="50" relative="1" as="geometry">
            <mxPoint x="-2048.5299999999997" y="-2223.4300000000003" as="sourcePoint" />
            <mxPoint x="-1838.53" y="-2223.4300000000003" as="targetPoint" />
          </mxGeometry>
        </mxCell>
        <mxCell id="gXlhPtz62oq5F0h1NBwY-17" value="Exit" style="edgeLabel;html=1;align=center;verticalAlign=middle;resizable=0;points=[];" vertex="1" connectable="0" parent="gXlhPtz62oq5F0h1NBwY-16">
          <mxGeometry x="0.0535" relative="1" as="geometry">
            <mxPoint y="-1" as="offset" />
          </mxGeometry>
        </mxCell>
        <mxCell id="gXlhPtz62oq5F0h1NBwY-18" value="Event" style="text;html=1;strokeColor=none;fillColor=none;align=center;verticalAlign=middle;whiteSpace=wrap;rounded=0;" vertex="1" parent="gXlhPtz62oq5F0h1NBwY-1">
          <mxGeometry x="-1808.5" y="-2361" width="50" height="20" as="geometry" />
        </mxCell>
        <mxCell id="gXlhPtz62oq5F0h1NBwY-19" style="edgeStyle=orthogonalEdgeStyle;rounded=0;orthogonalLoop=1;jettySize=auto;html=1;exitX=0.5;exitY=1;exitDx=0;exitDy=0;" edge="1" parent="gXlhPtz62oq5F0h1NBwY-1" target="gXlhPtz62oq5F0h1NBwY-22">
          <mxGeometry relative="1" as="geometry">
            <mxPoint x="-1747.28" y="-1861" as="sourcePoint" />
          </mxGeometry>
        </mxCell>
        <mxCell id="gXlhPtz62oq5F0h1NBwY-22" value="&lt;b&gt;&lt;font style=&quot;font-size: 14px;&quot;&gt;Update Status&lt;/font&gt;&lt;/b&gt;&lt;br&gt;&quot;Ready...&quot;&lt;br&gt;status: Idle" style="rounded=1;whiteSpace=wrap;html=1;fillColor=#fff2cc;strokeColor=#d6b656;" vertex="1" parent="gXlhPtz62oq5F0h1NBwY-1">
          <mxGeometry x="-1837.28" y="-1795" width="180" height="80" as="geometry" />
        </mxCell>
        <mxCell id="gXlhPtz62oq5F0h1NBwY-30" value="Logging queue is released" style="text;html=1;align=left;verticalAlign=middle;resizable=0;points=[];autosize=1;strokeColor=none;fillColor=none;" vertex="1" parent="gXlhPtz62oq5F0h1NBwY-1">
          <mxGeometry x="-2218.53" y="-2293" width="160" height="30" as="geometry" />
        </mxCell>
        <mxCell id="8IVJZXy_IR9ttIEPwlPQ-0" value="Acquiring queue is released" style="text;html=1;align=left;verticalAlign=middle;resizable=0;points=[];autosize=1;strokeColor=none;fillColor=none;" vertex="1" parent="gXlhPtz62oq5F0h1NBwY-1">
          <mxGeometry x="-1443.5300000000002" y="-2293" width="170" height="30" as="geometry" />
        </mxCell>
        <mxCell id="8IVJZXy_IR9ttIEPwlPQ-1" value="&lt;p&gt;For all Loops Exit messasge is queued with priority.&lt;/p&gt;&lt;p&gt;Once the UI queue is released, the user interface loop (and all other loops as well) stops.&lt;/p&gt;&lt;p&gt;Then the acquisition queue and the notifier queue are released. The program then terminates.&lt;/p&gt;" style="text;html=1;align=left;verticalAlign=middle;resizable=0;points=[];autosize=1;strokeColor=none;fillColor=none;" vertex="1" parent="gXlhPtz62oq5F0h1NBwY-1">
          <mxGeometry x="-1997.28" y="-2162" width="520" height="105" as="geometry" />
        </mxCell>
      </root>
    </mxGraphModel>
  </diagram>
</mxfile>
